<?xml version="1.0" encoding="UTF-8"?>
<svg xmlns="http://www.w3.org/2000/svg" xmlns:xlink="http://www.w3.org/1999/xlink" width="141.73pt" height="130.01pt" viewBox="0 0 141.73 130.01" version="1.1">
<defs>
<clipPath id="clip1">
  <path d="M 0 67 L 109 67 L 109 130.011719 L 0 130.011719 Z M 0 67 "/>
</clipPath>
<clipPath id="clip2">
  <path d="M 108 71 L 141.730469 71 L 141.730469 130.011719 L 108 130.011719 Z M 108 71 "/>
</clipPath>
</defs>
<g id="surface1">
<path style="fill:none;stroke-width:5;stroke-linecap:round;stroke-linejoin:round;stroke:rgb(50%,50%,50%);stroke-opacity:1;stroke-miterlimit:10;" d="M 500.976562 913.85 L 1248.671875 482.13125 L 1248.671875 865.88125 L 500.976562 1297.560937 Z M 500.976562 913.85 " transform="matrix(0.1,0,0,-0.1,0,130.01)"/>
<g clip-path="url(#clip1)" clip-rule="nonzero">
<path style="fill:none;stroke-width:5;stroke-linecap:round;stroke-linejoin:round;stroke:rgb(50%,50%,50%);stroke-opacity:1;stroke-miterlimit:10;" d="M 334.804688 626.0375 L 1082.5 194.357812 L 750.195312 2.482812 L 2.5 434.201562 Z M 334.804688 626.0375 " transform="matrix(0.1,0,0,-0.1,0,130.01)"/>
</g>
<path style="fill:none;stroke-width:5;stroke-linecap:round;stroke-linejoin:round;stroke:rgb(50%,50%,50%);stroke-opacity:1;stroke-dasharray:42.6356,42.6356;stroke-miterlimit:10;" d="M 849.882812 60.060937 L 849.882812 443.771875 " transform="matrix(0.1,0,0,-0.1,0,130.01)"/>
<path style="fill:none;stroke-width:5;stroke-linecap:round;stroke-linejoin:round;stroke:rgb(50%,50%,50%);stroke-opacity:1;stroke-dasharray:41.8604,41.8604;stroke-miterlimit:10;" d="M 1248.671875 674.00625 L 849.882812 443.771875 " transform="matrix(0.1,0,0,-0.1,0,130.01)"/>
<path style="fill:none;stroke-width:5;stroke-linecap:round;stroke-linejoin:round;stroke:rgb(0%,0%,0%);stroke-opacity:1;stroke-miterlimit:10;" d="M 311.40625 965.725 L 210.195312 1024.1625 " transform="matrix(0.1,0,0,-0.1,0,130.01)"/>
<path style="fill-rule:nonzero;fill:rgb(0%,0%,0%);fill-opacity:1;stroke-width:5;stroke-linecap:round;stroke-linejoin:round;stroke:rgb(0%,0%,0%);stroke-opacity:1;stroke-miterlimit:10;" d="M 376.367188 928.225 L 321.445312 983.146875 L 301.367188 948.303125 Z M 376.367188 928.225 " transform="matrix(0.1,0,0,-0.1,0,130.01)"/>
<path style=" stroke:none;fill-rule:nonzero;fill:rgb(0%,0%,0%);fill-opacity:1;" d="M 29.503906 21.246094 C 29.207031 20.398438 28.265625 20.398438 28.113281 20.398438 C 28.039062 20.398438 27.910156 20.398438 27.910156 20.519531 C 27.910156 20.613281 27.980469 20.625 28.039062 20.640625 C 28.21875 20.660156 28.363281 20.6875 28.550781 21.03125 C 28.671875 21.257812 29.898438 24.824219 29.898438 24.847656 C 29.898438 24.859375 29.886719 24.871094 29.792969 24.964844 L 26.691406 28.101562 C 26.550781 28.242188 26.453125 28.339844 26.453125 28.496094 C 26.453125 28.660156 26.597656 28.804688 26.789062 28.804688 C 26.835938 28.804688 26.964844 28.78125 27.039062 28.710938 C 27.230469 28.53125 28.933594 26.445312 30.019531 25.15625 C 30.328125 26.085938 30.710938 27.183594 31.078125 28.183594 C 31.140625 28.363281 31.199219 28.53125 31.367188 28.6875 C 31.484375 28.792969 31.507812 28.792969 31.84375 28.792969 L 32.070312 28.792969 C 32.117188 28.792969 32.199219 28.792969 32.199219 28.695312 C 32.199219 28.648438 32.1875 28.636719 32.140625 28.589844 C 32.035156 28.460938 31.949219 28.242188 31.902344 28.101562 L 29.503906 21.246094 "/>
<path style=" stroke:none;fill-rule:nonzero;fill:rgb(50%,50%,50%);fill-opacity:1;" d="M 19.285156 68.429688 C 18.902344 68.5 18.761719 68.785156 18.761719 69.011719 C 18.761719 69.300781 18.988281 69.394531 19.152344 69.394531 C 19.511719 69.394531 19.761719 69.085938 19.761719 68.761719 C 19.761719 68.261719 19.191406 68.035156 18.691406 68.035156 C 17.960938 68.035156 17.558594 68.75 17.449219 68.976562 C 17.175781 68.082031 16.4375 68.035156 16.222656 68.035156 C 15.003906 68.035156 14.363281 69.597656 14.363281 69.859375 C 14.363281 69.90625 14.410156 69.964844 14.492188 69.964844 C 14.589844 69.964844 14.613281 69.894531 14.636719 69.847656 C 15.042969 68.523438 15.839844 68.273438 16.1875 68.273438 C 16.722656 68.273438 16.832031 68.777344 16.832031 69.0625 C 16.832031 69.324219 16.757812 69.597656 16.613281 70.167969 L 16.210938 71.800781 C 16.03125 72.519531 15.683594 73.175781 15.054688 73.175781 C 14.996094 73.175781 14.695312 73.175781 14.445312 73.019531 C 14.875 72.933594 14.96875 72.578125 14.96875 72.433594 C 14.96875 72.195312 14.792969 72.054688 14.566406 72.054688 C 14.277344 72.054688 13.96875 72.304688 13.96875 72.683594 C 13.96875 73.183594 14.527344 73.410156 15.042969 73.410156 C 15.613281 73.410156 16.019531 72.957031 16.269531 72.472656 C 16.460938 73.175781 17.058594 73.410156 17.496094 73.410156 C 18.714844 73.410156 19.355469 71.851562 19.355469 71.589844 C 19.355469 71.527344 19.308594 71.480469 19.238281 71.480469 C 19.128906 71.480469 19.117188 71.542969 19.082031 71.636719 C 18.761719 72.683594 18.070312 73.175781 17.535156 73.175781 C 17.117188 73.175781 16.890625 72.863281 16.890625 72.375 C 16.890625 72.113281 16.9375 71.921875 17.128906 71.136719 L 17.542969 69.515625 C 17.722656 68.800781 18.128906 68.273438 18.675781 68.273438 C 18.699219 68.273438 19.035156 68.273438 19.285156 68.429688 "/>
<path style=" stroke:none;fill-rule:nonzero;fill:rgb(50%,50%,50%);fill-opacity:1;" d="M 43.945312 22.1875 C 43.625 22.640625 43.160156 23.046875 42.574219 23.046875 C 42.433594 23.046875 41.859375 23.023438 41.683594 22.476562 C 41.71875 22.484375 41.777344 22.484375 41.800781 22.484375 C 42.160156 22.484375 42.398438 22.175781 42.398438 21.902344 C 42.398438 21.628906 42.171875 21.53125 41.992188 21.53125 C 41.800781 21.53125 41.382812 21.675781 41.382812 22.257812 C 41.382812 22.867188 41.894531 23.285156 42.574219 23.285156 C 43.769531 23.285156 44.972656 22.1875 45.304688 20.863281 L 46.472656 16.214844 C 46.484375 16.15625 46.511719 16.085938 46.511719 16.015625 C 46.511719 15.835938 46.367188 15.714844 46.1875 15.714844 C 46.082031 15.714844 45.832031 15.761719 45.734375 16.121094 L 44.851562 19.625 C 44.792969 19.839844 44.792969 19.863281 44.699219 19.996094 C 44.460938 20.328125 44.066406 20.734375 43.496094 20.734375 C 42.824219 20.734375 42.765625 20.078125 42.765625 19.757812 C 42.765625 19.074219 43.089844 18.160156 43.410156 17.300781 C 43.542969 16.953125 43.613281 16.785156 43.613281 16.550781 C 43.613281 16.046875 43.253906 15.597656 42.671875 15.597656 C 41.574219 15.597656 41.132812 17.324219 41.132812 17.421875 C 41.132812 17.46875 41.183594 17.527344 41.265625 17.527344 C 41.371094 17.527344 41.382812 17.480469 41.433594 17.3125 C 41.71875 16.3125 42.171875 15.835938 42.636719 15.835938 C 42.742188 15.835938 42.945312 15.835938 42.945312 16.226562 C 42.945312 16.535156 42.816406 16.882812 42.636719 17.335938 C 42.050781 18.898438 42.050781 19.292969 42.050781 19.578125 C 42.050781 20.710938 42.863281 20.972656 43.457031 20.972656 C 43.804688 20.972656 44.234375 20.863281 44.652344 20.421875 L 44.660156 20.4375 C 44.484375 21.140625 44.363281 21.605469 43.945312 22.1875 "/>
<path style="fill:none;stroke-width:5;stroke-linecap:round;stroke-linejoin:round;stroke:rgb(100%,0%,0%);stroke-opacity:1;stroke-miterlimit:10;" d="M 235.117188 568.498437 L 236.835938 567.326562 L 238.203125 565.959375 L 239.21875 564.396875 L 239.960938 562.639062 L 240.351562 560.725 L 240.429688 558.615625 L 240.234375 556.35 L 239.726562 553.889062 L 238.945312 551.271875 L 237.890625 548.498437 L 236.5625 545.607812 L 235.039062 542.521875 L 233.28125 539.357812 L 231.328125 536.076562 L 229.179688 532.678125 L 226.875 529.201562 L 224.414062 525.607812 L 221.835938 521.975 L 219.179688 518.264062 L 216.445312 514.553125 L 205.195312 499.396875 L 202.421875 495.646875 L 199.726562 491.935937 L 197.109375 488.264062 L 194.609375 484.670312 L 192.226562 481.115625 L 190 477.678125 L 187.96875 474.357812 L 186.09375 471.115625 L 184.453125 468.029687 L 183.046875 465.021875 L 181.875 462.209375 L 180.976562 459.514062 L 180.351562 457.014062 L 180 454.63125 L 179.960938 452.44375 L 180.234375 450.451562 L 180.78125 448.615625 L 181.679688 446.975 L 182.929688 445.529687 L 184.492188 444.279687 L 186.367188 443.225 L 188.59375 442.326562 L 191.132812 441.6625 L 194.023438 441.154687 L 197.1875 440.842187 L 200.703125 440.685937 L 204.53125 440.764062 L 208.632812 440.959375 L 213.046875 441.35 L 217.734375 441.896875 L 222.65625 442.6 L 227.851562 443.420312 L 233.242188 444.357812 L 238.867188 445.451562 L 244.648438 446.6625 L 250.625 447.951562 L 256.757812 449.31875 L 263.007812 450.764062 L 269.375 452.2875 L 275.820312 453.85 L 282.34375 455.451562 L 288.90625 457.092187 L 295.46875 458.69375 L 302.03125 460.334375 L 308.554688 461.935937 L 315.039062 463.5375 L 321.40625 465.060937 L 327.695312 466.545312 L 333.867188 467.951562 L 339.921875 469.279687 L 345.78125 470.490625 L 351.445312 471.623437 L 356.914062 472.6 L 362.1875 473.498437 L 367.1875 474.240625 L 371.953125 474.826562 L 376.445312 475.25625 L 380.664062 475.529687 L 384.609375 475.646875 L 388.203125 475.56875 L 391.523438 475.295312 L 394.492188 474.865625 L 397.148438 474.240625 L 399.492188 473.459375 L 401.484375 472.44375 L 403.164062 471.232812 L 404.492188 469.865625 L 405.46875 468.264062 L 406.171875 466.50625 L 406.523438 464.553125 L 406.601562 462.44375 L 406.328125 460.139062 L 405.820312 457.678125 L 405 455.021875 L 403.90625 452.248437 L 402.578125 449.31875 L 401.015625 446.271875 L 399.21875 443.06875 L 397.226562 439.7875 L 395.078125 436.35 L 392.773438 432.873437 L 390.273438 429.279687 L 387.695312 425.646875 L 385.039062 421.935937 L 382.265625 418.185937 L 379.492188 414.396875 L 376.679688 410.607812 L 373.828125 406.81875 L 371.015625 403.06875 L 368.28125 399.31875 L 365.585938 395.607812 L 362.96875 391.935937 L 360.46875 388.342187 L 358.125 384.826562 L 355.9375 381.389062 L 353.90625 378.06875 L 352.070312 374.826562 L 350.46875 371.740625 L 349.0625 368.771875 L 347.929688 365.959375 L 347.070312 363.303125 L 346.445312 360.803125 L 346.132812 358.459375 L 346.132812 356.310937 L 346.40625 354.31875 L 347.03125 352.521875 L 347.96875 350.88125 L 349.21875 349.475 L 350.820312 348.225 L 352.734375 347.170312 L 355 346.310937 L 357.578125 345.646875 L 360.507812 345.178125 L 363.75 344.865625 L 367.265625 344.7875 L 371.132812 344.826562 L 375.273438 345.060937 L 379.726562 345.490625 L 384.414062 346.0375 L 389.375 346.740625 L 394.570312 347.6 L 400 348.576562 L 405.664062 349.670312 L 411.484375 350.842187 L 417.460938 352.170312 L 423.59375 353.5375 L 429.882812 355.021875 L 436.25 356.545312 L 442.695312 358.107812 L 449.21875 359.709375 L 455.78125 361.35 L 462.34375 362.951562 L 468.90625 364.592187 L 475.429688 366.19375 L 481.875 367.75625 L 488.28125 369.279687 L 494.570312 370.764062 L 500.703125 372.170312 L 506.71875 373.459375 L 512.578125 374.709375 L 518.242188 375.803125 L 523.671875 376.779687 L 528.90625 377.639062 L 533.90625 378.38125 L 538.632812 378.967187 L 543.085938 379.357812 L 547.265625 379.63125 L 551.171875 379.709375 L 554.726562 379.63125 L 558.007812 379.357812 L 560.976562 378.889062 L 563.59375 378.225 L 565.859375 377.404687 L 567.851562 376.389062 L 569.453125 375.178125 L 570.78125 373.771875 L 571.71875 372.170312 L 572.382812 370.373437 L 572.734375 368.420312 L 572.734375 366.271875 L 572.460938 363.928125 L 571.875 361.467187 L 571.054688 358.810937 L 569.921875 355.998437 L 568.554688 353.06875 L 566.992188 349.982812 L 565.15625 346.779687 L 563.164062 343.459375 L 560.976562 340.060937 L 558.632812 336.545312 L 556.171875 332.951562 L 553.554688 329.279687 L 550.898438 325.56875 L 548.125 321.81875 L 545.3125 318.06875 L 536.875 306.701562 L 534.140625 302.951562 L 531.445312 299.240625 L 528.867188 295.607812 L 526.367188 292.014062 L 524.023438 288.498437 L 521.835938 285.060937 L 519.84375 281.779687 L 518.046875 278.576562 L 516.445312 275.490625 L 515.078125 272.521875 L 513.984375 269.748437 L 513.125 267.092187 L 512.539062 264.592187 L 512.265625 262.2875 L 512.304688 260.139062 L 512.617188 258.185937 L 513.28125 256.389062 L 514.257812 254.7875 L 515.546875 253.38125 L 517.1875 252.170312 L 519.140625 251.154687 L 521.445312 250.295312 L 524.0625 249.670312 L 526.992188 249.201562 L 530.273438 248.928125 L 533.867188 248.85 L 537.734375 248.928125 L 541.914062 249.1625 L 546.367188 249.592187 L 551.09375 250.178125 L 556.09375 250.88125 L 561.328125 251.740625 L 566.796875 252.75625 L 572.421875 253.85 L 578.28125 255.060937 L 584.296875 256.389062 L 590.46875 257.795312 L 596.71875 259.240625 L 603.125 260.764062 L 609.570312 262.365625 L 616.09375 263.967187 L 622.65625 265.56875 L 635.78125 268.85 L 642.304688 270.451562 L 648.75 272.014062 L 655.117188 273.5375 L 661.40625 274.982812 L 667.539062 276.389062 L 673.554688 277.678125 L 679.375 278.889062 L 685 279.982812 L 690.429688 280.959375 L 695.625 281.81875 L 700.585938 282.521875 L 705.3125 283.06875 L 709.726562 283.459375 L 713.867188 283.69375 L 717.734375 283.771875 L 721.289062 283.654687 L 724.53125 283.38125 L 727.421875 282.9125 L 730 282.248437 L 732.265625 281.389062 L 734.179688 280.334375 L 735.78125 279.084375 L 737.03125 277.639062 L 737.96875 276.0375 L 738.59375 274.240625 L 738.90625 272.248437 L 738.867188 270.1 L 738.554688 267.75625 L 737.96875 265.25625 L 737.070312 262.560937 L 735.9375 259.748437 L 734.570312 256.779687 L 732.929688 253.69375 L 731.09375 250.490625 L 729.101562 247.170312 L 726.875 243.732812 L 724.53125 240.217187 L 722.03125 236.623437 L 719.453125 232.951562 L 716.71875 229.240625 L 713.984375 225.490625 L 708.359375 217.9125 L 705.507812 214.123437 L 699.960938 206.623437 L 697.304688 202.9125 L 694.726562 199.279687 L 692.265625 195.685937 L 689.921875 192.170312 L 687.773438 188.771875 L 685.78125 185.451562 L 684.023438 182.2875 L 682.421875 179.201562 L 681.09375 176.271875 L 680.039062 173.498437 L 679.21875 170.88125 L 678.671875 168.420312 L 678.4375 166.115625 L 678.476562 163.967187 L 678.828125 162.053125 L 679.53125 160.25625 L 680.546875 158.69375 L 681.875 157.2875 L 683.515625 156.115625 L 685.546875 155.1 L 687.851562 154.279687 L 690.507812 153.654687 L 693.515625 153.225 L 696.796875 152.990625 L 700.429688 152.9125 L 704.335938 153.029687 L 708.554688 153.303125 L 713.046875 153.732812 L 717.8125 154.31875 L 722.8125 155.060937 L 728.085938 155.920312 L 733.554688 156.935937 L 739.21875 158.06875 L 745.117188 159.279687 L 751.132812 160.607812 L 757.304688 162.014062 L 763.59375 163.498437 L 770 165.021875 L 776.484375 166.584375 L 783.007812 168.225 L 789.570312 169.826562 L 796.132812 171.467187 L 802.65625 173.107812 L 809.179688 174.709375 L 815.625 176.271875 L 821.992188 177.75625 L 828.242188 179.240625 L 834.375 180.607812 L 840.351562 181.896875 L 846.171875 183.107812 L 851.757812 184.1625 L 857.1875 185.139062 L 862.34375 185.959375 L 867.265625 186.6625 L 871.953125 187.209375 L 876.367188 187.560937 L 880.46875 187.795312 L 884.296875 187.834375 L 887.8125 187.717187 L 891.015625 187.404687 L 893.867188 186.896875 L 896.445312 186.232812 L 898.632812 185.334375 L 900.546875 184.279687 L 902.109375 182.990625 L 903.320312 181.545312 L 904.21875 179.904687 L 904.804688 178.107812 L 905.039062 176.076562 L 905 173.889062 L 904.648438 171.545312 L 904.023438 169.00625 L 903.125 166.35 L 901.953125 163.498437 L 900.546875 160.529687 L 898.90625 157.44375 L 897.070312 154.201562 L 895 150.842187 L 892.773438 147.404687 L 890.429688 143.889062 L 887.890625 140.295312 L 885.3125 136.623437 L 882.578125 132.9125 L 879.804688 129.123437 L 877.03125 125.373437 L 874.179688 121.584375 L 868.554688 114.00625 L 865.820312 110.25625 L 863.164062 106.584375 L 860.585938 102.9125 L 858.164062 99.357812 L 855.859375 95.88125 L 853.710938 92.482812 L 851.71875 89.1625 L 849.960938 85.998437 L 848.4375 82.951562 L 847.109375 80.060937 L 846.054688 77.2875 L 845.273438 74.670312 L 844.765625 72.209375 L 844.570312 69.94375 L 844.648438 67.834375 L 845.039062 65.88125 L 845.78125 64.1625 L 846.796875 62.6 L 848.203125 61.232812 L 849.882812 60.060937 " transform="matrix(0.1,0,0,-0.1,0,130.01)"/>
<path style="fill:none;stroke-width:5;stroke-linecap:round;stroke-linejoin:round;stroke:rgb(0%,0%,100%);stroke-opacity:1;stroke-miterlimit:10;" d="M 500.976562 1105.685937 L 502.851562 1114.084375 L 504.6875 1122.44375 L 506.5625 1130.725 L 508.4375 1138.85 L 510.3125 1146.779687 L 512.1875 1154.475 L 514.0625 1161.896875 L 515.9375 1169.00625 L 517.773438 1175.764062 L 519.648438 1182.13125 L 521.523438 1188.029687 L 523.398438 1193.498437 L 525.273438 1198.420312 L 527.148438 1202.834375 L 529.023438 1206.6625 L 530.859375 1209.94375 L 532.734375 1212.6 L 534.609375 1214.63125 L 536.484375 1216.0375 L 538.359375 1216.740625 L 540.234375 1216.81875 L 542.109375 1216.232812 L 543.945312 1214.982812 L 545.820312 1213.029687 L 547.695312 1210.451562 L 549.570312 1207.170312 L 551.445312 1203.264062 L 553.320312 1198.732812 L 555.195312 1193.576562 L 557.03125 1187.834375 L 558.90625 1181.50625 L 560.78125 1174.63125 L 562.65625 1167.248437 L 564.53125 1159.396875 L 566.40625 1151.076562 L 568.28125 1142.326562 L 570.117188 1133.225 L 571.992188 1123.771875 L 573.867188 1114.00625 L 575.742188 1104.045312 L 577.617188 1093.810937 L 579.492188 1083.459375 L 581.328125 1072.990625 L 583.203125 1062.44375 L 585.078125 1051.857812 L 586.953125 1041.310937 L 588.828125 1030.842187 L 590.703125 1020.490625 L 592.578125 1010.295312 L 594.414062 1000.334375 L 596.289062 990.607812 L 598.164062 981.19375 L 600.039062 972.13125 L 601.914062 963.459375 L 603.789062 955.178125 L 605.664062 947.365625 L 607.5 940.021875 L 609.375 933.225 L 611.25 926.975 L 613.125 921.271875 L 615 916.19375 L 616.875 911.740625 L 618.710938 907.873437 L 620.585938 904.709375 L 622.460938 902.170312 L 624.335938 900.295312 L 626.210938 899.123437 L 628.085938 898.615625 L 629.960938 898.732812 L 631.796875 899.553125 L 633.671875 901.0375 L 635.546875 903.107812 L 637.421875 905.842187 L 639.296875 909.1625 L 641.171875 913.06875 L 643.046875 917.560937 L 644.882812 922.560937 L 646.757812 928.06875 L 648.632812 934.00625 L 650.507812 940.4125 L 652.382812 947.209375 L 654.257812 954.357812 L 656.09375 961.81875 L 657.96875 969.553125 L 659.84375 977.521875 L 661.71875 985.646875 L 663.59375 993.928125 L 665.46875 1002.2875 L 667.34375 1010.685937 L 669.179688 1019.084375 L 671.054688 1027.44375 L 672.929688 1035.685937 L 674.804688 1043.810937 L 676.679688 1051.701562 L 678.554688 1059.396875 L 680.429688 1066.779687 L 682.265625 1073.85 L 684.140625 1080.56875 L 686.015625 1086.896875 L 687.890625 1092.75625 L 689.765625 1098.146875 L 691.640625 1103.029687 L 693.515625 1107.365625 L 695.351562 1111.154687 L 697.226562 1114.357812 L 699.101562 1116.935937 L 700.976562 1118.889062 L 702.851562 1120.217187 L 704.726562 1120.88125 L 706.601562 1120.88125 L 708.4375 1120.217187 L 710.3125 1118.85 L 712.1875 1116.857812 L 714.0625 1114.1625 L 715.9375 1110.842187 L 717.8125 1106.857812 L 719.6875 1102.248437 L 721.523438 1097.053125 L 723.398438 1091.232812 L 725.273438 1084.826562 L 727.148438 1077.9125 L 729.023438 1070.490625 L 730.898438 1062.560937 L 732.773438 1054.201562 L 734.609375 1045.4125 L 736.484375 1036.232812 L 738.359375 1026.779687 L 740.234375 1017.014062 L 742.109375 1006.975 L 743.984375 996.740625 L 745.859375 986.35 L 747.695312 975.88125 L 749.570312 965.334375 L 751.445312 954.748437 L 753.320312 944.201562 L 755.195312 933.771875 L 757.070312 923.420312 L 758.90625 913.264062 L 760.78125 903.303125 L 762.65625 893.615625 L 764.53125 884.240625 L 766.40625 875.217187 L 768.28125 866.584375 L 770.15625 858.342187 L 771.992188 850.607812 L 773.867188 843.303125 L 775.742188 836.584375 L 777.617188 830.373437 L 779.492188 824.748437 L 781.367188 819.748437 L 783.242188 815.334375 L 785.078125 811.584375 L 786.953125 808.459375 L 788.828125 805.998437 L 790.703125 804.201562 L 792.578125 803.107812 L 794.453125 802.639062 L 796.328125 802.873437 L 798.164062 803.771875 L 800.039062 805.295312 L 801.914062 807.482812 L 803.789062 810.25625 L 805.664062 813.654687 L 807.539062 817.639062 L 809.414062 822.170312 L 811.25 827.209375 L 813.125 832.75625 L 815 838.771875 L 816.875 845.217187 L 818.75 852.053125 L 820.625 859.240625 L 822.460938 866.740625 L 824.335938 874.475 L 826.210938 882.482812 L 828.085938 890.646875 L 829.960938 898.928125 L 831.835938 907.2875 L 833.710938 915.685937 L 835.546875 924.123437 L 837.421875 932.44375 L 839.296875 940.685937 L 841.171875 948.771875 L 843.046875 956.6625 L 844.921875 964.31875 L 846.757812 971.6625 L 848.632812 978.69375 L 850.507812 985.373437 L 852.382812 991.623437 L 854.257812 997.44375 L 856.132812 1002.75625 L 858.007812 1007.6 L 859.84375 1011.896875 L 861.71875 1015.607812 L 863.59375 1018.732812 L 865.46875 1021.232812 L 867.34375 1023.146875 L 869.21875 1024.396875 L 871.09375 1024.982812 L 872.929688 1024.904687 L 874.804688 1024.1625 L 876.679688 1022.75625 L 878.554688 1020.646875 L 880.429688 1017.9125 L 882.304688 1014.514062 L 884.179688 1010.451562 L 886.015625 1005.764062 L 887.890625 1000.490625 L 889.765625 994.63125 L 891.640625 988.185937 L 893.515625 981.19375 L 895.390625 973.69375 L 897.265625 965.725 L 899.101562 957.2875 L 900.976562 948.459375 L 902.851562 939.279687 L 904.726562 929.7875 L 906.601562 919.982812 L 908.476562 909.904687 L 910.3125 899.670312 L 912.1875 889.279687 L 914.0625 878.771875 L 915.9375 868.225 L 917.8125 857.639062 L 919.6875 847.13125 L 921.5625 836.6625 L 923.4375 826.35 L 925.273438 816.232812 L 927.148438 806.310937 L 929.023438 796.6625 L 930.898438 787.2875 L 932.773438 778.303125 L 934.648438 769.709375 L 936.523438 761.545312 L 938.359375 753.810937 L 940.234375 746.623437 L 942.109375 739.904687 L 943.984375 733.771875 L 945.859375 728.225 L 947.734375 723.303125 L 949.570312 718.967187 L 951.445312 715.25625 L 953.320312 712.209375 L 955.195312 709.826562 L 957.070312 708.146875 L 958.945312 707.092187 L 960.820312 706.701562 L 962.65625 707.014062 L 964.53125 707.951562 L 966.40625 709.553125 L 968.28125 711.81875 L 970.15625 714.670312 L 972.03125 718.146875 L 973.90625 722.170312 L 975.742188 726.779687 L 977.617188 731.857812 L 979.492188 737.482812 L 981.367188 743.5375 L 983.242188 750.021875 L 985.117188 756.896875 L 986.992188 764.123437 L 988.828125 771.6625 L 990.703125 779.435937 L 992.578125 787.44375 L 994.453125 795.607812 L 996.328125 803.928125 L 998.203125 812.2875 L 1000.078125 820.725 L 1001.914062 829.123437 L 1003.789062 837.44375 L 1005.664062 845.646875 L 1007.539062 853.732812 L 1009.414062 861.584375 L 1011.289062 869.201562 L 1013.125 876.545312 L 1015 883.5375 L 1016.875 890.139062 L 1018.75 896.35 L 1020.625 902.13125 L 1022.5 907.404687 L 1024.375 912.170312 L 1026.210938 916.389062 L 1028.085938 920.060937 L 1029.960938 923.107812 L 1031.835938 925.56875 L 1033.710938 927.365625 L 1035.585938 928.5375 L 1037.421875 929.084375 L 1039.296875 928.928125 L 1041.171875 928.107812 L 1043.046875 926.623437 L 1044.921875 924.435937 L 1046.796875 921.623437 L 1048.671875 918.146875 L 1050.546875 914.045312 L 1052.382812 909.279687 L 1054.257812 903.928125 L 1056.132812 897.990625 L 1058.007812 891.50625 L 1059.882812 884.435937 L 1061.757812 876.896875 L 1063.59375 868.889062 L 1065.46875 860.4125 L 1067.34375 851.545312 L 1069.21875 842.326562 L 1071.09375 832.75625 L 1072.96875 822.9125 L 1074.84375 812.873437 L 1076.71875 802.6 L 1078.554688 792.170312 L 1080.429688 781.6625 L 1082.304688 771.115625 L 1084.179688 760.529687 L 1086.054688 750.021875 L 1087.890625 739.592187 L 1089.765625 729.279687 L 1091.640625 719.1625 L 1093.515625 709.279687 L 1095.390625 699.670312 L 1097.265625 690.373437 L 1099.140625 681.389062 L 1101.015625 672.834375 L 1102.851562 664.709375 L 1104.726562 657.053125 L 1106.601562 649.904687 L 1108.476562 643.264062 L 1110.351562 637.209375 L 1112.226562 631.740625 L 1114.0625 626.857812 L 1115.9375 622.6 L 1117.8125 618.967187 L 1119.6875 615.998437 L 1121.5625 613.69375 L 1123.4375 612.053125 L 1125.3125 611.076562 L 1127.148438 610.803125 L 1129.023438 611.154687 L 1130.898438 612.170312 L 1132.773438 613.85 L 1134.648438 616.154687 L 1136.523438 619.084375 L 1138.398438 622.639062 L 1140.234375 626.740625 L 1142.109375 631.389062 L 1143.984375 636.545312 L 1145.859375 642.209375 L 1147.734375 648.303125 L 1149.609375 654.865625 L 1151.445312 661.779687 L 1153.359375 669.00625 L 1155.195312 676.584375 L 1157.070312 684.396875 L 1158.945312 692.404687 L 1160.820312 700.607812 L 1162.695312 708.928125 L 1164.53125 717.2875 L 1166.40625 725.725 L 1168.28125 734.123437 L 1170.15625 742.44375 L 1172.03125 750.646875 L 1173.90625 758.69375 L 1175.78125 766.50625 L 1177.65625 774.123437 L 1179.492188 781.389062 L 1181.367188 788.342187 L 1183.242188 794.94375 L 1185.117188 801.076562 L 1186.992188 806.81875 L 1188.867188 812.014062 L 1190.703125 816.740625 L 1192.578125 820.88125 L 1194.453125 824.475 L 1196.328125 827.482812 L 1198.203125 829.865625 L 1200.078125 831.623437 L 1201.953125 832.717187 L 1203.789062 833.146875 L 1205.664062 832.9125 L 1207.539062 832.053125 L 1209.414062 830.490625 L 1211.289062 828.225 L 1213.164062 825.334375 L 1215.039062 821.81875 L 1216.875 817.6 L 1218.75 812.795312 L 1220.625 807.365625 L 1222.5 801.389062 L 1224.375 794.7875 L 1226.210938 787.717187 L 1228.125 780.1 L 1229.960938 772.014062 L 1231.835938 763.498437 L 1233.710938 754.592187 L 1235.585938 745.334375 L 1237.460938 735.764062 L 1239.335938 725.88125 L 1241.171875 715.803125 L 1243.046875 705.529687 L 1244.921875 695.1 L 1246.796875 684.592187 L 1248.671875 674.00625 " transform="matrix(0.1,0,0,-0.1,0,130.01)"/>
<path style="fill:none;stroke-width:5;stroke-linecap:round;stroke-linejoin:round;stroke:rgb(0%,0%,0%);stroke-opacity:1;stroke-miterlimit:10;" d="M 235.117188 952.209375 L 236.835938 960.529687 L 238.203125 968.576562 L 239.21875 976.389062 L 239.960938 983.85 L 240.351562 990.920312 L 240.429688 997.6 L 240.234375 1003.810937 L 239.726562 1009.553125 L 238.945312 1014.7875 L 237.890625 1019.435937 L 236.5625 1023.5375 L 235.039062 1027.014062 L 233.28125 1029.865625 L 231.328125 1032.053125 L 229.179688 1033.576562 L 226.875 1034.435937 L 224.414062 1034.592187 L 221.835938 1034.045312 L 219.179688 1032.834375 L 216.445312 1030.88125 L 213.632812 1028.303125 L 210.820312 1024.982812 L 208.007812 1020.998437 L 205.195312 1016.389062 L 202.421875 1011.076562 L 199.726562 1005.178125 L 197.109375 998.69375 L 194.609375 991.623437 L 192.226562 984.045312 L 190 975.920312 L 187.96875 967.326562 L 186.09375 958.342187 L 184.453125 948.928125 L 183.046875 939.1625 L 181.875 929.084375 L 180.976562 918.732812 L 180.351562 908.185937 L 180 897.44375 L 179.960938 886.584375 L 180.234375 875.685937 L 180.78125 864.709375 L 181.679688 853.810937 L 182.929688 842.951562 L 184.492188 832.209375 L 186.367188 821.6625 L 188.59375 811.310937 L 191.132812 801.232812 L 194.023438 791.467187 L 197.1875 782.053125 L 200.703125 773.029687 L 204.53125 764.435937 L 208.632812 756.310937 L 213.046875 748.69375 L 217.734375 741.623437 L 222.65625 735.139062 L 227.851562 729.240625 L 233.242188 723.928125 L 238.867188 719.279687 L 244.648438 715.295312 L 250.625 712.014062 L 256.757812 709.357812 L 263.007812 707.44375 L 269.375 706.19375 L 275.820312 705.646875 L 282.34375 705.803125 L 288.90625 706.6625 L 295.46875 708.185937 L 302.03125 710.373437 L 308.554688 713.185937 L 315.039062 716.6625 L 321.40625 720.725 L 327.695312 725.373437 L 333.867188 730.607812 L 339.921875 736.310937 L 345.78125 742.560937 L 351.445312 749.201562 L 356.914062 756.310937 L 362.1875 763.732812 L 367.1875 771.545312 L 371.953125 779.592187 L 376.445312 787.9125 L 380.664062 796.389062 L 384.609375 805.060937 L 388.203125 813.810937 L 391.523438 822.560937 L 394.492188 831.35 L 397.148438 840.1 L 399.492188 848.732812 L 401.484375 857.209375 L 403.164062 865.490625 L 404.492188 873.5375 L 405.46875 881.310937 L 406.171875 888.69375 L 406.523438 895.764062 L 406.601562 902.365625 L 406.328125 908.576562 L 405.820312 914.240625 L 405 919.396875 L 403.90625 924.00625 L 402.578125 928.029687 L 401.015625 931.428125 L 399.21875 934.201562 L 397.226562 936.310937 L 395.078125 937.75625 L 392.773438 938.5375 L 390.273438 938.615625 L 387.695312 938.029687 L 385.039062 936.701562 L 382.265625 934.709375 L 379.492188 932.014062 L 376.679688 928.654687 L 373.828125 924.592187 L 371.015625 919.865625 L 368.28125 914.553125 L 365.585938 908.576562 L 362.96875 902.014062 L 360.46875 894.904687 L 358.125 887.209375 L 355.9375 879.045312 L 353.90625 870.4125 L 352.070312 861.35 L 350.46875 851.896875 L 349.0625 842.13125 L 347.929688 832.014062 L 347.070312 821.623437 L 346.445312 811.076562 L 346.132812 800.334375 L 346.132812 789.475 L 346.40625 778.5375 L 347.03125 767.560937 L 347.96875 756.6625 L 349.21875 745.803125 L 350.820312 735.1 L 352.734375 724.553125 L 355 714.240625 L 357.578125 704.201562 L 360.507812 694.475 L 363.75 685.1 L 367.265625 676.115625 L 371.132812 667.6 L 375.273438 659.514062 L 379.726562 651.975 L 384.414062 644.94375 L 389.375 638.5375 L 394.570312 632.678125 L 400 627.482812 L 405.664062 622.873437 L 411.484375 618.967187 L 417.460938 615.725 L 423.59375 613.185937 L 429.882812 611.35 L 436.25 610.178125 L 442.695312 609.709375 L 449.21875 609.94375 L 455.78125 610.842187 L 462.34375 612.44375 L 468.90625 614.709375 L 475.429688 617.6 L 481.875 621.154687 L 488.28125 625.295312 L 494.570312 630.021875 L 500.703125 635.295312 L 506.71875 641.076562 L 512.578125 647.326562 L 518.242188 654.045312 L 523.671875 661.19375 L 528.90625 668.654687 L 533.90625 676.467187 L 538.632812 684.592187 L 543.085938 692.9125 L 547.265625 701.428125 L 551.171875 710.1 L 554.726562 718.85 L 558.007812 727.639062 L 560.976562 736.389062 L 563.59375 745.139062 L 565.859375 753.732812 L 567.851562 762.209375 L 569.453125 770.490625 L 570.78125 778.498437 L 571.71875 786.19375 L 572.382812 793.576562 L 572.734375 800.56875 L 572.734375 807.170312 L 572.460938 813.264062 L 571.875 818.889062 L 571.054688 824.00625 L 569.921875 828.5375 L 568.554688 832.482812 L 566.992188 835.842187 L 565.15625 838.5375 L 563.164062 840.56875 L 560.976562 841.975 L 558.632812 842.678125 L 556.171875 842.678125 L 553.554688 841.975 L 550.898438 840.607812 L 548.125 838.5375 L 545.3125 835.764062 L 542.5 832.2875 L 539.6875 828.185937 L 536.875 823.38125 L 534.140625 817.990625 L 531.445312 811.935937 L 528.867188 805.334375 L 526.367188 798.146875 L 524.023438 790.4125 L 521.835938 782.209375 L 519.84375 773.498437 L 518.046875 764.396875 L 516.445312 754.904687 L 515.078125 745.060937 L 513.984375 734.94375 L 513.125 724.553125 L 512.539062 713.967187 L 512.265625 703.185937 L 512.304688 692.326562 L 512.617188 681.389062 L 513.28125 670.451562 L 514.257812 659.514062 L 515.546875 648.69375 L 517.1875 637.990625 L 519.140625 627.482812 L 521.445312 617.209375 L 524.0625 607.170312 L 526.992188 597.482812 L 530.273438 588.146875 L 533.867188 579.240625 L 537.734375 570.725 L 541.914062 562.717187 L 546.367188 555.217187 L 551.09375 548.303125 L 556.09375 541.896875 L 561.328125 536.154687 L 566.796875 530.998437 L 572.421875 526.50625 L 578.28125 522.639062 L 584.296875 519.514062 L 590.46875 517.014062 L 596.71875 515.25625 L 603.125 514.1625 L 609.570312 513.771875 L 616.09375 514.084375 L 622.65625 515.060937 L 629.21875 516.740625 L 635.78125 519.084375 L 642.304688 522.053125 L 648.75 525.646875 L 655.117188 529.865625 L 661.40625 534.63125 L 667.539062 539.982812 L 673.554688 545.803125 L 679.375 552.13125 L 685 558.889062 L 690.429688 566.076562 L 695.625 573.576562 L 700.585938 581.428125 L 705.3125 589.553125 L 709.726562 597.9125 L 713.867188 606.467187 L 717.734375 615.139062 L 721.289062 623.889062 L 724.53125 632.678125 L 727.421875 641.467187 L 730 650.178125 L 732.265625 658.771875 L 734.179688 667.209375 L 735.78125 675.451562 L 737.03125 683.420312 L 737.96875 691.115625 L 738.59375 698.459375 L 738.90625 705.4125 L 738.867188 711.935937 L 738.554688 717.990625 L 737.96875 723.576562 L 737.070312 728.615625 L 735.9375 733.06875 L 734.570312 736.975 L 732.929688 740.217187 L 731.09375 742.873437 L 729.101562 744.826562 L 726.875 746.154687 L 724.53125 746.779687 L 722.03125 746.701562 L 719.453125 745.920312 L 716.71875 744.475 L 713.984375 742.326562 L 711.171875 739.475 L 708.359375 735.920312 L 705.507812 731.740625 L 702.734375 726.896875 L 699.960938 721.389062 L 697.304688 715.295312 L 694.726562 708.615625 L 692.265625 701.35 L 689.921875 693.576562 L 687.773438 685.334375 L 685.78125 676.584375 L 684.023438 667.44375 L 682.421875 657.9125 L 681.09375 648.029687 L 680.039062 637.873437 L 679.21875 627.44375 L 678.671875 616.81875 L 678.4375 606.0375 L 678.476562 595.178125 L 678.828125 584.240625 L 679.53125 573.303125 L 680.546875 562.365625 L 681.875 551.545312 L 683.515625 540.88125 L 685.546875 530.373437 L 687.851562 520.139062 L 690.507812 510.139062 L 693.515625 500.490625 L 696.796875 491.19375 L 700.429688 482.326562 L 704.335938 473.889062 L 708.554688 465.920312 L 713.046875 458.498437 L 717.8125 451.623437 L 722.8125 445.295312 L 728.085938 439.592187 L 733.554688 434.514062 L 739.21875 430.1 L 745.117188 426.35 L 751.132812 423.264062 L 757.304688 420.842187 L 763.59375 419.1625 L 770 418.146875 L 776.484375 417.834375 L 783.007812 418.225 L 789.570312 419.279687 L 796.132812 421.0375 L 802.65625 423.420312 L 809.179688 426.50625 L 815.625 430.178125 L 821.992188 434.435937 L 828.242188 439.279687 L 834.375 444.670312 L 840.351562 450.56875 L 846.171875 456.935937 L 851.757812 463.732812 L 857.1875 470.959375 L 862.34375 478.5375 L 867.265625 486.389062 L 871.953125 494.553125 L 876.367188 502.951562 L 880.46875 511.467187 L 884.296875 520.178125 L 887.8125 528.928125 L 891.015625 537.717187 L 893.867188 546.50625 L 896.445312 555.178125 L 898.632812 563.771875 L 900.546875 572.209375 L 902.109375 580.4125 L 903.320312 588.38125 L 904.21875 595.998437 L 904.804688 603.303125 L 905.039062 610.217187 L 905 616.701562 L 904.648438 622.717187 L 904.023438 628.225 L 903.125 633.185937 L 901.953125 637.6 L 900.546875 641.428125 L 898.90625 644.63125 L 897.070312 647.170312 L 895 649.084375 L 892.773438 650.334375 L 890.429688 650.88125 L 887.890625 650.725 L 885.3125 649.865625 L 882.578125 648.342187 L 879.804688 646.115625 L 877.03125 643.185937 L 874.179688 639.592187 L 871.367188 635.295312 L 868.554688 630.373437 L 865.820312 624.826562 L 863.164062 618.654687 L 860.585938 611.896875 L 858.164062 604.592187 L 855.859375 596.779687 L 853.710938 588.459375 L 851.71875 579.670312 L 849.960938 570.451562 L 848.4375 560.88125 L 847.109375 550.998437 L 846.054688 540.803125 L 845.273438 530.334375 L 844.765625 519.709375 L 844.570312 508.928125 L 844.648438 498.029687 L 845.039062 487.092187 L 845.78125 476.154687 L 846.796875 465.25625 L 848.203125 454.435937 L 849.882812 443.771875 " transform="matrix(0.1,0,0,-0.1,0,130.01)"/>
<path style="fill:none;stroke-width:5;stroke-linecap:round;stroke-linejoin:round;stroke:rgb(0%,0%,0%);stroke-opacity:1;stroke-miterlimit:10;" d="M 851.40625 519.63125 L 168.671875 913.85 " transform="matrix(0.1,0,0,-0.1,0,130.01)"/>
<path style="fill-rule:nonzero;fill:rgb(0%,0%,0%);fill-opacity:1;stroke-width:5;stroke-linecap:round;stroke-linejoin:round;stroke:rgb(0%,0%,0%);stroke-opacity:1;stroke-miterlimit:10;" d="M 916.367188 482.13125 L 861.445312 537.053125 L 841.367188 502.248437 Z M 916.367188 482.13125 " transform="matrix(0.1,0,0,-0.1,0,130.01)"/>
<g clip-path="url(#clip2)" clip-rule="nonzero">
<path style="fill:none;stroke-width:5;stroke-linecap:round;stroke-linejoin:round;stroke:rgb(50%,50%,50%);stroke-opacity:1;stroke-miterlimit:10;" d="M 1414.804688 194.357812 L 1414.804688 578.06875 L 1082.5 386.232812 L 1082.5 2.482812 Z M 1414.804688 194.357812 " transform="matrix(0.1,0,0,-0.1,0,130.01)"/>
</g>
<path style="fill:none;stroke-width:5;stroke-linecap:round;stroke-linejoin:round;stroke:rgb(0%,0%,0%);stroke-opacity:1;stroke-miterlimit:10;" d="M 1192.304688 186.545312 L 1191.445312 188.889062 L 1190.429688 191.975 L 1189.453125 195.139062 L 1188.515625 198.38125 L 1187.65625 201.740625 L 1186.875 205.178125 L 1186.132812 208.69375 L 1185.46875 212.2875 L 1184.84375 215.959375 L 1184.296875 219.709375 L 1183.789062 223.5375 L 1183.398438 227.44375 L 1183.007812 231.389062 L 1182.734375 235.373437 L 1182.5 239.435937 L 1182.34375 243.576562 L 1182.226562 247.717187 L 1182.1875 251.935937 L 1182.226562 256.154687 L 1182.34375 260.4125 L 1182.5 264.709375 L 1182.734375 269.045312 L 1183.007812 273.38125 L 1183.789062 282.13125 L 1184.296875 286.50625 L 1184.84375 290.920312 L 1185.46875 295.295312 L 1186.132812 299.670312 L 1186.875 304.045312 L 1187.65625 308.420312 L 1188.515625 312.75625 L 1189.453125 317.053125 L 1190.429688 321.35 L 1191.445312 325.607812 L 1192.539062 329.865625 L 1193.710938 334.045312 L 1194.882812 338.185937 L 1196.132812 342.2875 L 1197.460938 346.35 L 1198.828125 350.334375 L 1200.234375 354.240625 L 1201.679688 358.107812 L 1203.164062 361.935937 L 1204.726562 365.646875 L 1206.289062 369.31875 L 1207.929688 372.873437 L 1209.609375 376.389062 L 1211.328125 379.7875 L 1213.046875 383.107812 L 1214.84375 386.35 L 1216.640625 389.475 L 1218.476562 392.521875 L 1220.351562 395.490625 L 1222.265625 398.303125 L 1224.21875 401.0375 L 1226.132812 403.654687 L 1228.125 406.154687 L 1230.117188 408.5375 L 1232.148438 410.842187 L 1234.179688 412.990625 L 1236.210938 415.021875 L 1238.28125 416.935937 L 1240.351562 418.732812 L 1242.421875 420.373437 L 1244.492188 421.935937 L 1246.5625 423.303125 L 1248.671875 424.592187 " transform="matrix(0.1,0,0,-0.1,0,130.01)"/>
<path style=" stroke:none;fill-rule:nonzero;fill:rgb(0%,0%,0%);fill-opacity:1;" d="M 124.867188 114.410156 L 124.636719 114.476562 L 124.410156 114.527344 L 124.1875 114.566406 L 123.972656 114.589844 L 123.757812 114.601562 L 123.546875 114.601562 L 123.339844 114.585938 L 123.136719 114.558594 L 122.9375 114.519531 L 122.746094 114.464844 L 122.558594 114.398438 L 122.378906 114.320312 L 122.199219 114.226562 L 122.027344 114.121094 L 121.863281 114.003906 L 121.703125 113.875 L 121.550781 113.734375 L 121.402344 113.578125 L 121.261719 113.410156 L 121.128906 113.234375 L 121.003906 113.042969 L 120.882812 112.839844 L 120.765625 112.628906 L 120.660156 112.402344 L 120.5625 112.167969 L 120.46875 111.921875 L 120.382812 111.664062 L 120.304688 111.398438 L 120.234375 111.121094 L 120.207031 110.996094 L 118.128906 111.761719 L 118.21875 111.925781 L 118.382812 112.210938 L 118.554688 112.488281 L 118.726562 112.753906 L 118.902344 113.007812 L 119.082031 113.25 L 119.261719 113.476562 L 119.445312 113.695312 L 119.632812 113.902344 L 119.820312 114.097656 L 120.011719 114.277344 L 120.207031 114.445312 L 120.398438 114.601562 L 120.597656 114.742188 L 120.792969 114.871094 L 120.988281 114.988281 L 121.1875 115.089844 L 121.390625 115.175781 L 121.589844 115.25 L 121.789062 115.3125 L 121.988281 115.359375 L 122.1875 115.394531 L 122.390625 115.414062 L 122.589844 115.417969 L 122.785156 115.410156 L 122.984375 115.386719 L 123.179688 115.351562 L 123.375 115.300781 L 123.570312 115.238281 L 123.761719 115.160156 L 123.949219 115.066406 L 124.140625 114.964844 L 124.324219 114.84375 L 124.507812 114.714844 L 124.6875 114.570312 L 124.867188 114.410156 "/>
<path style="fill:none;stroke-width:5;stroke-linecap:round;stroke-linejoin:round;stroke:rgb(0%,0%,0%);stroke-opacity:1;stroke-miterlimit:10;" d="M 1248.671875 155.998437 L 1246.367188 155.334375 L 1244.101562 154.826562 L 1241.875 154.435937 L 1239.726562 154.201562 L 1237.578125 154.084375 L 1235.46875 154.084375 L 1233.398438 154.240625 L 1231.367188 154.514062 L 1229.375 154.904687 L 1227.460938 155.451562 L 1225.585938 156.115625 L 1223.789062 156.896875 L 1221.992188 157.834375 L 1220.273438 158.889062 L 1218.632812 160.060937 L 1217.03125 161.35 L 1215.507812 162.75625 L 1214.023438 164.31875 L 1212.617188 165.998437 L 1211.289062 167.75625 L 1210.039062 169.670312 L 1208.828125 171.701562 L 1207.65625 173.810937 L 1206.601562 176.076562 L 1205.625 178.420312 L 1204.6875 180.88125 L 1203.828125 183.459375 L 1203.046875 186.115625 L 1202.34375 188.889062 L 1202.070312 190.139062 L 1181.289062 182.482812 L 1182.1875 180.842187 L 1183.828125 177.990625 L 1185.546875 175.217187 L 1187.265625 172.560937 L 1189.023438 170.021875 L 1190.820312 167.6 L 1192.617188 165.334375 L 1194.453125 163.146875 L 1196.328125 161.076562 L 1198.203125 159.123437 L 1200.117188 157.326562 L 1202.070312 155.646875 L 1203.984375 154.084375 L 1205.976562 152.678125 L 1207.929688 151.389062 L 1209.882812 150.217187 L 1211.875 149.201562 L 1213.90625 148.342187 L 1215.898438 147.6 L 1217.890625 146.975 L 1219.882812 146.50625 L 1221.875 146.154687 L 1223.90625 145.959375 L 1225.898438 145.920312 L 1227.851562 145.998437 L 1229.84375 146.232812 L 1231.796875 146.584375 L 1233.75 147.092187 L 1235.703125 147.717187 L 1237.617188 148.498437 L 1239.492188 149.435937 L 1241.40625 150.451562 L 1243.242188 151.6625 L 1245.078125 152.951562 L 1246.875 154.396875 Z M 1248.671875 155.998437 " transform="matrix(0.1,0,0,-0.1,0,130.01)"/>
<path style="fill:none;stroke-width:5;stroke-linecap:round;stroke-linejoin:round;stroke:rgb(0%,0%,0%);stroke-opacity:1;stroke-miterlimit:10;" d="M 1305.039062 394.00625 L 1305.898438 391.701562 L 1306.914062 388.615625 L 1307.890625 385.451562 L 1308.789062 382.209375 L 1309.648438 378.85 L 1310.46875 375.4125 L 1311.210938 371.896875 L 1311.875 368.303125 L 1312.5 364.592187 L 1313.046875 360.842187 L 1313.515625 357.053125 L 1313.945312 353.146875 L 1314.296875 349.201562 L 1314.609375 345.178125 L 1314.84375 341.115625 L 1315 337.014062 L 1315.117188 332.873437 L 1315.117188 324.435937 L 1315 320.139062 L 1314.84375 315.842187 L 1314.609375 311.545312 L 1314.296875 307.170312 L 1313.945312 302.834375 L 1313.515625 298.459375 L 1313.046875 294.045312 L 1312.5 289.670312 L 1311.875 285.295312 L 1311.210938 280.88125 L 1310.46875 276.545312 L 1309.648438 272.170312 L 1308.789062 267.834375 L 1307.890625 263.498437 L 1306.914062 259.201562 L 1305.898438 254.94375 L 1304.804688 250.725 L 1303.632812 246.545312 L 1302.421875 242.404687 L 1301.171875 238.303125 L 1299.882812 234.240625 L 1298.515625 230.25625 L 1297.109375 226.310937 L 1295.664062 222.44375 L 1294.140625 218.654687 L 1292.617188 214.94375 L 1291.015625 211.271875 L 1289.414062 207.678125 L 1287.734375 204.201562 L 1286.015625 200.764062 L 1284.296875 197.44375 L 1282.5 194.240625 L 1280.703125 191.076562 L 1278.828125 188.029687 L 1276.953125 185.1 L 1275.078125 182.2875 L 1273.125 179.553125 L 1271.171875 176.935937 L 1269.21875 174.435937 L 1267.226562 172.014062 L 1265.195312 169.748437 L 1263.164062 167.6 L 1261.132812 165.56875 L 1259.0625 163.654687 L 1256.992188 161.857812 L 1254.921875 160.178125 L 1252.851562 158.654687 L 1250.742188 157.248437 L 1248.671875 155.998437 " transform="matrix(0.1,0,0,-0.1,0,130.01)"/>
<path style=" stroke:none;fill-rule:nonzero;fill:rgb(0%,0%,0%);fill-opacity:1;" d="M 124.867188 87.550781 L 125.097656 87.488281 L 125.320312 87.433594 L 125.542969 87.398438 L 125.761719 87.371094 L 125.976562 87.359375 L 126.1875 87.363281 L 126.394531 87.375 L 126.597656 87.402344 L 126.792969 87.445312 L 126.988281 87.496094 L 127.175781 87.5625 L 127.355469 87.640625 L 127.53125 87.734375 L 127.703125 87.839844 L 127.871094 87.957031 L 128.027344 88.085938 L 128.183594 88.230469 L 128.328125 88.382812 L 128.46875 88.550781 L 128.605469 88.730469 L 128.730469 88.917969 L 128.851562 89.121094 L 128.964844 89.335938 L 129.074219 89.558594 L 129.171875 89.792969 L 129.265625 90.039062 L 129.351562 90.296875 L 129.429688 90.5625 L 129.496094 90.839844 L 129.523438 90.964844 L 131.605469 90.203125 L 131.515625 90.035156 L 131.351562 89.75 L 131.179688 89.472656 L 131.007812 89.207031 L 130.832031 88.957031 L 130.652344 88.714844 L 130.472656 88.484375 L 130.285156 88.265625 L 130.101562 88.058594 L 129.910156 87.867188 L 129.71875 87.683594 L 129.527344 87.515625 L 129.335938 87.363281 L 129.136719 87.21875 L 128.941406 87.089844 L 128.742188 86.976562 L 128.542969 86.875 L 128.34375 86.785156 L 128.144531 86.710938 L 127.945312 86.648438 L 127.746094 86.601562 L 127.546875 86.570312 L 127.34375 86.550781 L 127.144531 86.542969 L 126.945312 86.550781 L 126.75 86.574219 L 126.554688 86.609375 L 126.359375 86.660156 L 126.164062 86.726562 L 125.972656 86.800781 L 125.78125 86.894531 L 125.59375 87 L 125.410156 87.117188 L 125.226562 87.25 L 125.046875 87.394531 L 124.867188 87.550781 "/>
<path style="fill:none;stroke-width:5;stroke-linecap:round;stroke-linejoin:round;stroke:rgb(0%,0%,0%);stroke-opacity:1;stroke-miterlimit:10;" d="M 1248.671875 424.592187 L 1250.976562 425.217187 L 1253.203125 425.764062 L 1255.429688 426.115625 L 1257.617188 426.389062 L 1259.765625 426.50625 L 1261.875 426.467187 L 1263.945312 426.35 L 1265.976562 426.076562 L 1267.929688 425.646875 L 1269.882812 425.139062 L 1271.757812 424.475 L 1273.554688 423.69375 L 1275.3125 422.75625 L 1277.03125 421.701562 L 1278.710938 420.529687 L 1280.273438 419.240625 L 1281.835938 417.795312 L 1283.28125 416.271875 L 1284.6875 414.592187 L 1286.054688 412.795312 L 1287.304688 410.920312 L 1288.515625 408.889062 L 1289.648438 406.740625 L 1290.742188 404.514062 L 1291.71875 402.170312 L 1292.65625 399.709375 L 1293.515625 397.13125 L 1294.296875 394.475 L 1294.960938 391.701562 L 1295.234375 390.451562 L 1316.054688 398.06875 L 1315.15625 399.748437 L 1313.515625 402.6 L 1311.796875 405.373437 L 1310.078125 408.029687 L 1308.320312 410.529687 L 1306.523438 412.951562 L 1304.726562 415.25625 L 1302.851562 417.44375 L 1301.015625 419.514062 L 1299.101562 421.428125 L 1297.1875 423.264062 L 1295.273438 424.94375 L 1293.359375 426.467187 L 1291.367188 427.9125 L 1289.414062 429.201562 L 1287.421875 430.334375 L 1285.429688 431.35 L 1283.4375 432.248437 L 1281.445312 432.990625 L 1279.453125 433.615625 L 1277.460938 434.084375 L 1275.46875 434.396875 L 1273.4375 434.592187 L 1271.445312 434.670312 L 1269.453125 434.592187 L 1267.5 434.357812 L 1265.546875 434.00625 L 1263.59375 433.498437 L 1261.640625 432.834375 L 1259.726562 432.092187 L 1257.8125 431.154687 L 1255.9375 430.1 L 1254.101562 428.928125 L 1252.265625 427.6 L 1250.46875 426.154687 Z M 1248.671875 424.592187 " transform="matrix(0.1,0,0,-0.1,0,130.01)"/>
</g>
</svg>
