<?xml version="1.0" encoding="UTF-8"?>
<svg xmlns="http://www.w3.org/2000/svg" xmlns:xlink="http://www.w3.org/1999/xlink" width="141.73pt" height="130.01pt" viewBox="0 0 141.73 130.01" version="1.1">
<defs>
<clipPath id="clip1">
  <path d="M 0 67 L 109 67 L 109 130.011719 L 0 130.011719 Z M 0 67 "/>
</clipPath>
<clipPath id="clip2">
  <path d="M 108 71 L 141.730469 71 L 141.730469 130.011719 L 108 130.011719 Z M 108 71 "/>
</clipPath>
</defs>
<g id="surface1">
<path style="fill:none;stroke-width:5;stroke-linecap:round;stroke-linejoin:round;stroke:rgb(50%,50%,50%);stroke-opacity:1;stroke-miterlimit:10;" d="M 500.976562 913.85 L 1248.671875 482.13125 L 1248.671875 865.88125 L 500.976562 1297.560937 Z M 500.976562 913.85 " transform="matrix(0.1,0,0,-0.1,0,130.01)"/>
<g clip-path="url(#clip1)" clip-rule="nonzero">
<path style="fill:none;stroke-width:5;stroke-linecap:round;stroke-linejoin:round;stroke:rgb(50%,50%,50%);stroke-opacity:1;stroke-miterlimit:10;" d="M 334.804688 626.0375 L 1082.5 194.357812 L 750.195312 2.482812 L 2.5 434.201562 Z M 334.804688 626.0375 " transform="matrix(0.1,0,0,-0.1,0,130.01)"/>
</g>
<path style="fill:none;stroke-width:5;stroke-linecap:round;stroke-linejoin:round;stroke:rgb(50%,50%,50%);stroke-opacity:1;stroke-dasharray:42.6356,42.6356;stroke-miterlimit:10;" d="M 916.367188 98.420312 L 916.367188 482.13125 " transform="matrix(0.1,0,0,-0.1,0,130.01)"/>
<path style="fill:none;stroke-width:5;stroke-linecap:round;stroke-linejoin:round;stroke:rgb(50%,50%,50%);stroke-opacity:1;stroke-dasharray:42.6356,42.6356;stroke-miterlimit:10;" d="M 1248.671875 674.00625 L 916.367188 482.13125 " transform="matrix(0.1,0,0,-0.1,0,130.01)"/>
<path style="fill:none;stroke-width:5;stroke-linecap:round;stroke-linejoin:round;stroke:rgb(0%,0%,0%);stroke-opacity:1;stroke-miterlimit:10;" d="M 311.40625 965.725 L 210.195312 1024.1625 " transform="matrix(0.1,0,0,-0.1,0,130.01)"/>
<path style="fill-rule:nonzero;fill:rgb(0%,0%,0%);fill-opacity:1;stroke-width:5;stroke-linecap:round;stroke-linejoin:round;stroke:rgb(0%,0%,0%);stroke-opacity:1;stroke-miterlimit:10;" d="M 376.367188 928.225 L 321.445312 983.146875 L 301.367188 948.303125 Z M 376.367188 928.225 " transform="matrix(0.1,0,0,-0.1,0,130.01)"/>
<path style=" stroke:none;fill-rule:nonzero;fill:rgb(0%,0%,0%);fill-opacity:1;" d="M 29.503906 21.246094 C 29.207031 20.398438 28.265625 20.398438 28.113281 20.398438 C 28.039062 20.398438 27.910156 20.398438 27.910156 20.519531 C 27.910156 20.613281 27.980469 20.625 28.039062 20.640625 C 28.21875 20.660156 28.363281 20.6875 28.550781 21.03125 C 28.671875 21.257812 29.898438 24.824219 29.898438 24.847656 C 29.898438 24.859375 29.886719 24.871094 29.792969 24.964844 L 26.691406 28.101562 C 26.550781 28.242188 26.453125 28.339844 26.453125 28.496094 C 26.453125 28.660156 26.597656 28.804688 26.789062 28.804688 C 26.835938 28.804688 26.964844 28.78125 27.039062 28.710938 C 27.230469 28.53125 28.933594 26.445312 30.019531 25.15625 C 30.328125 26.085938 30.710938 27.183594 31.078125 28.183594 C 31.140625 28.363281 31.199219 28.53125 31.367188 28.6875 C 31.484375 28.792969 31.507812 28.792969 31.84375 28.792969 L 32.070312 28.792969 C 32.117188 28.792969 32.199219 28.792969 32.199219 28.695312 C 32.199219 28.648438 32.1875 28.636719 32.140625 28.589844 C 32.035156 28.460938 31.949219 28.242188 31.902344 28.101562 L 29.503906 21.246094 "/>
<path style=" stroke:none;fill-rule:nonzero;fill:rgb(50%,50%,50%);fill-opacity:1;" d="M 19.285156 68.429688 C 18.902344 68.5 18.761719 68.785156 18.761719 69.011719 C 18.761719 69.300781 18.988281 69.394531 19.152344 69.394531 C 19.511719 69.394531 19.761719 69.085938 19.761719 68.761719 C 19.761719 68.261719 19.191406 68.035156 18.691406 68.035156 C 17.960938 68.035156 17.558594 68.75 17.449219 68.976562 C 17.175781 68.082031 16.4375 68.035156 16.222656 68.035156 C 15.003906 68.035156 14.363281 69.597656 14.363281 69.859375 C 14.363281 69.90625 14.410156 69.964844 14.492188 69.964844 C 14.589844 69.964844 14.613281 69.894531 14.636719 69.847656 C 15.042969 68.523438 15.839844 68.273438 16.1875 68.273438 C 16.722656 68.273438 16.832031 68.777344 16.832031 69.0625 C 16.832031 69.324219 16.757812 69.597656 16.613281 70.167969 L 16.210938 71.800781 C 16.03125 72.519531 15.683594 73.175781 15.054688 73.175781 C 14.996094 73.175781 14.695312 73.175781 14.445312 73.019531 C 14.875 72.933594 14.96875 72.578125 14.96875 72.433594 C 14.96875 72.195312 14.792969 72.054688 14.566406 72.054688 C 14.277344 72.054688 13.96875 72.304688 13.96875 72.683594 C 13.96875 73.183594 14.527344 73.410156 15.042969 73.410156 C 15.613281 73.410156 16.019531 72.957031 16.269531 72.472656 C 16.460938 73.175781 17.058594 73.410156 17.496094 73.410156 C 18.714844 73.410156 19.355469 71.851562 19.355469 71.589844 C 19.355469 71.527344 19.308594 71.480469 19.238281 71.480469 C 19.128906 71.480469 19.117188 71.542969 19.082031 71.636719 C 18.761719 72.683594 18.070312 73.175781 17.535156 73.175781 C 17.117188 73.175781 16.890625 72.863281 16.890625 72.375 C 16.890625 72.113281 16.9375 71.921875 17.128906 71.136719 L 17.542969 69.515625 C 17.722656 68.800781 18.128906 68.273438 18.675781 68.273438 C 18.699219 68.273438 19.035156 68.273438 19.285156 68.429688 "/>
<path style=" stroke:none;fill-rule:nonzero;fill:rgb(50%,50%,50%);fill-opacity:1;" d="M 43.945312 22.1875 C 43.625 22.640625 43.160156 23.046875 42.574219 23.046875 C 42.433594 23.046875 41.859375 23.023438 41.683594 22.476562 C 41.71875 22.484375 41.777344 22.484375 41.800781 22.484375 C 42.160156 22.484375 42.398438 22.175781 42.398438 21.902344 C 42.398438 21.628906 42.171875 21.53125 41.992188 21.53125 C 41.800781 21.53125 41.382812 21.675781 41.382812 22.257812 C 41.382812 22.867188 41.894531 23.285156 42.574219 23.285156 C 43.769531 23.285156 44.972656 22.1875 45.304688 20.863281 L 46.472656 16.214844 C 46.484375 16.15625 46.511719 16.085938 46.511719 16.015625 C 46.511719 15.835938 46.367188 15.714844 46.1875 15.714844 C 46.082031 15.714844 45.832031 15.761719 45.734375 16.121094 L 44.851562 19.625 C 44.792969 19.839844 44.792969 19.863281 44.699219 19.996094 C 44.460938 20.328125 44.066406 20.734375 43.496094 20.734375 C 42.824219 20.734375 42.765625 20.078125 42.765625 19.757812 C 42.765625 19.074219 43.089844 18.160156 43.410156 17.300781 C 43.542969 16.953125 43.613281 16.785156 43.613281 16.550781 C 43.613281 16.046875 43.253906 15.597656 42.671875 15.597656 C 41.574219 15.597656 41.132812 17.324219 41.132812 17.421875 C 41.132812 17.46875 41.183594 17.527344 41.265625 17.527344 C 41.371094 17.527344 41.382812 17.480469 41.433594 17.3125 C 41.71875 16.3125 42.171875 15.835938 42.636719 15.835938 C 42.742188 15.835938 42.945312 15.835938 42.945312 16.226562 C 42.945312 16.535156 42.816406 16.882812 42.636719 17.335938 C 42.050781 18.898438 42.050781 19.292969 42.050781 19.578125 C 42.050781 20.710938 42.863281 20.972656 43.457031 20.972656 C 43.804688 20.972656 44.234375 20.863281 44.652344 20.421875 L 44.660156 20.4375 C 44.484375 21.140625 44.363281 21.605469 43.945312 22.1875 "/>
<path style="fill:none;stroke-width:5;stroke-linecap:round;stroke-linejoin:round;stroke:rgb(100%,0%,0%);stroke-opacity:1;stroke-miterlimit:10;" d="M 168.671875 530.1 L 170.507812 529.045312 L 172.382812 527.951562 L 174.257812 526.896875 L 178.007812 524.709375 L 179.882812 523.654687 L 181.757812 522.560937 L 183.59375 521.467187 L 185.46875 520.4125 L 189.21875 518.225 L 191.09375 517.170312 L 192.96875 516.076562 L 194.804688 515.021875 L 198.554688 512.834375 L 200.429688 511.779687 L 204.179688 509.592187 L 206.054688 508.5375 L 207.890625 507.44375 L 209.765625 506.389062 L 213.515625 504.201562 L 215.390625 503.146875 L 219.140625 500.959375 L 220.976562 499.904687 L 222.851562 498.810937 L 224.726562 497.75625 L 228.476562 495.56875 L 230.351562 494.514062 L 232.226562 493.420312 L 234.0625 492.326562 L 235.9375 491.271875 L 237.8125 490.178125 L 239.6875 489.123437 L 243.4375 486.935937 L 245.3125 485.88125 L 247.148438 484.7875 L 249.023438 483.69375 L 250.898438 482.639062 L 252.773438 481.545312 L 254.648438 480.490625 L 258.398438 478.303125 L 260.234375 477.248437 L 263.984375 475.060937 L 265.859375 474.00625 L 269.609375 471.81875 L 271.484375 470.764062 L 273.320312 469.670312 L 275.195312 468.615625 L 278.945312 466.428125 L 280.820312 465.373437 L 284.570312 463.185937 L 286.40625 462.13125 L 288.28125 461.0375 L 290.15625 459.982812 L 293.90625 457.795312 L 295.78125 456.740625 L 297.617188 455.646875 L 299.492188 454.553125 L 301.367188 453.498437 L 303.242188 452.404687 L 305.117188 451.35 L 308.867188 449.1625 L 310.703125 448.107812 L 314.453125 445.920312 L 316.328125 444.865625 L 318.203125 443.771875 L 320.078125 442.717187 L 321.953125 441.623437 L 323.789062 440.529687 L 325.664062 439.475 L 329.414062 437.2875 L 331.289062 436.232812 L 333.164062 435.139062 L 335.039062 434.084375 L 336.875 432.990625 L 338.75 431.896875 L 340.625 430.842187 L 344.375 428.654687 L 346.25 427.6 L 348.085938 426.50625 L 349.960938 425.4125 L 351.835938 424.357812 L 353.710938 423.264062 L 355.585938 422.209375 L 359.335938 420.021875 L 361.171875 418.967187 L 364.921875 416.779687 L 366.796875 415.725 L 368.671875 414.63125 L 370.546875 413.576562 L 372.382812 412.482812 L 374.257812 411.389062 L 376.132812 410.334375 L 379.882812 408.146875 L 381.757812 407.092187 L 383.632812 405.998437 L 385.46875 404.94375 L 389.21875 402.75625 L 391.09375 401.701562 L 394.84375 399.514062 L 396.71875 398.459375 L 398.554688 397.365625 L 400.429688 396.310937 L 404.179688 394.123437 L 406.054688 393.06875 L 409.804688 390.88125 L 411.640625 389.826562 L 413.515625 388.732812 L 415.390625 387.678125 L 419.140625 385.490625 L 421.015625 384.435937 L 422.890625 383.342187 L 424.726562 382.248437 L 426.601562 381.19375 L 430.351562 379.00625 L 432.226562 377.951562 L 434.101562 376.857812 L 435.9375 375.803125 L 439.6875 373.615625 L 441.5625 372.560937 L 445.3125 370.373437 L 447.1875 369.31875 L 449.0625 368.225 L 450.898438 367.170312 L 454.648438 364.982812 L 456.523438 363.928125 L 460.273438 361.740625 L 462.148438 360.685937 L 463.984375 359.592187 L 465.859375 358.5375 L 469.609375 356.35 L 471.484375 355.295312 L 473.359375 354.201562 L 475.195312 353.107812 L 477.070312 352.053125 L 478.945312 350.959375 L 480.820312 349.904687 L 484.570312 347.717187 L 486.445312 346.6625 L 488.28125 345.56875 L 490.15625 344.475 L 492.03125 343.420312 L 493.90625 342.326562 L 495.78125 341.271875 L 499.53125 339.084375 L 501.367188 338.029687 L 505.117188 335.842187 L 506.992188 334.7875 L 510.742188 332.6 L 512.617188 331.545312 L 514.453125 330.451562 L 516.328125 329.396875 L 520.078125 327.209375 L 521.953125 326.154687 L 525.703125 323.967187 L 527.539062 322.9125 L 529.414062 321.81875 L 531.289062 320.764062 L 535.039062 318.576562 L 536.914062 317.521875 L 538.75 316.428125 L 540.625 315.334375 L 542.5 314.279687 L 544.375 313.185937 L 546.25 312.13125 L 550 309.94375 L 551.835938 308.889062 L 555.585938 306.701562 L 557.460938 305.646875 L 559.335938 304.553125 L 561.210938 303.498437 L 563.046875 302.404687 L 564.921875 301.310937 L 566.796875 300.25625 L 570.546875 298.06875 L 572.421875 297.014062 L 574.296875 295.920312 L 576.132812 294.865625 L 579.882812 292.678125 L 581.757812 291.623437 L 585.507812 289.435937 L 587.382812 288.38125 L 589.21875 287.2875 L 591.09375 286.232812 L 594.84375 284.045312 L 596.71875 282.990625 L 600.46875 280.803125 L 602.304688 279.748437 L 606.054688 277.560937 L 607.929688 276.50625 L 609.804688 275.4125 L 611.679688 274.357812 L 613.554688 273.264062 L 615.390625 272.170312 L 617.265625 271.115625 L 621.015625 268.928125 L 622.890625 267.873437 L 624.765625 266.779687 L 626.601562 265.725 L 630.351562 263.5375 L 632.226562 262.482812 L 635.976562 260.295312 L 637.851562 259.240625 L 639.6875 258.146875 L 641.5625 257.092187 L 645.3125 254.904687 L 647.1875 253.85 L 650.9375 251.6625 L 652.8125 250.607812 L 654.648438 249.514062 L 656.523438 248.459375 L 660.273438 246.271875 L 662.148438 245.217187 L 664.023438 244.123437 L 665.859375 243.029687 L 667.734375 241.975 L 669.609375 240.88125 L 671.484375 239.826562 L 675.234375 237.639062 L 677.109375 236.584375 L 678.945312 235.490625 L 680.820312 234.396875 L 682.695312 233.342187 L 686.445312 231.154687 L 688.320312 230.1 L 690.195312 229.00625 L 692.03125 227.951562 L 695.78125 225.764062 L 697.65625 224.709375 L 701.40625 222.521875 L 703.28125 221.467187 L 705.117188 220.373437 L 706.992188 219.31875 L 710.742188 217.13125 L 712.617188 216.076562 L 716.367188 213.889062 L 718.203125 212.834375 L 720.078125 211.740625 L 721.953125 210.685937 L 725.703125 208.498437 L 727.578125 207.44375 L 729.414062 206.35 L 731.289062 205.25625 L 733.164062 204.201562 L 735.039062 203.107812 L 736.914062 202.053125 L 740.664062 199.865625 L 742.5 198.810937 L 746.25 196.623437 L 748.125 195.56875 L 750 194.475 L 751.875 193.420312 L 753.710938 192.326562 L 755.585938 191.232812 L 757.460938 190.178125 L 761.210938 187.990625 L 763.085938 186.935937 L 764.960938 185.842187 L 766.796875 184.748437 L 768.671875 183.69375 L 770.546875 182.6 L 772.421875 181.545312 L 776.171875 179.357812 L 778.046875 178.303125 L 779.882812 177.209375 L 781.757812 176.115625 L 783.632812 175.060937 L 785.507812 173.967187 L 787.382812 172.9125 L 791.132812 170.725 L 792.96875 169.670312 L 796.71875 167.482812 L 798.59375 166.428125 L 800.46875 165.334375 L 802.34375 164.279687 L 804.179688 163.185937 L 806.054688 162.092187 L 807.929688 161.0375 L 811.679688 158.85 L 813.554688 157.795312 L 815.429688 156.701562 L 817.265625 155.646875 L 821.015625 153.459375 L 822.890625 152.404687 L 826.640625 150.217187 L 828.515625 149.1625 L 830.351562 148.06875 L 832.226562 147.014062 L 835.976562 144.826562 L 837.851562 143.771875 L 841.601562 141.584375 L 843.4375 140.529687 L 847.1875 138.342187 L 849.0625 137.2875 L 850.9375 136.19375 L 852.8125 135.139062 L 854.6875 134.045312 L 856.523438 132.951562 L 858.398438 131.896875 L 862.148438 129.709375 L 864.023438 128.654687 L 865.898438 127.560937 L 867.773438 126.50625 L 869.609375 125.4125 L 871.484375 124.31875 L 873.359375 123.264062 L 877.109375 121.076562 L 878.984375 120.021875 L 880.859375 118.928125 L 882.695312 117.873437 L 886.445312 115.685937 L 888.320312 114.63125 L 892.070312 112.44375 L 893.945312 111.389062 L 895.78125 110.295312 L 897.65625 109.240625 L 901.40625 107.053125 L 903.28125 105.998437 L 905.15625 104.904687 L 906.992188 103.810937 L 908.867188 102.75625 L 910.742188 101.6625 L 912.617188 100.607812 L 916.367188 98.420312 " transform="matrix(0.1,0,0,-0.1,0,130.01)"/>
<path style="fill:none;stroke-width:5;stroke-linecap:round;stroke-linejoin:round;stroke:rgb(0%,0%,100%);stroke-opacity:1;stroke-miterlimit:10;" d="M 500.976562 1105.685937 L 502.851562 1114.084375 L 504.6875 1122.44375 L 506.5625 1130.725 L 508.4375 1138.85 L 510.3125 1146.779687 L 512.1875 1154.475 L 514.0625 1161.896875 L 515.9375 1169.00625 L 517.773438 1175.764062 L 519.648438 1182.13125 L 521.523438 1188.029687 L 523.398438 1193.498437 L 525.273438 1198.420312 L 527.148438 1202.834375 L 529.023438 1206.6625 L 530.859375 1209.94375 L 532.734375 1212.6 L 534.609375 1214.63125 L 536.484375 1216.0375 L 538.359375 1216.740625 L 540.234375 1216.81875 L 542.109375 1216.232812 L 543.945312 1214.982812 L 545.820312 1213.029687 L 547.695312 1210.451562 L 549.570312 1207.170312 L 551.445312 1203.264062 L 553.320312 1198.732812 L 555.195312 1193.576562 L 557.03125 1187.834375 L 558.90625 1181.50625 L 560.78125 1174.63125 L 562.65625 1167.248437 L 564.53125 1159.396875 L 566.40625 1151.076562 L 568.28125 1142.326562 L 570.117188 1133.225 L 571.992188 1123.771875 L 573.867188 1114.00625 L 575.742188 1104.045312 L 577.617188 1093.810937 L 579.492188 1083.459375 L 581.328125 1072.990625 L 583.203125 1062.44375 L 585.078125 1051.857812 L 586.953125 1041.310937 L 588.828125 1030.842187 L 590.703125 1020.490625 L 592.578125 1010.295312 L 594.414062 1000.334375 L 596.289062 990.607812 L 598.164062 981.19375 L 600.039062 972.13125 L 601.914062 963.459375 L 603.789062 955.178125 L 605.664062 947.365625 L 607.5 940.021875 L 609.375 933.225 L 611.25 926.975 L 613.125 921.271875 L 615 916.19375 L 616.875 911.740625 L 618.710938 907.873437 L 620.585938 904.709375 L 622.460938 902.170312 L 624.335938 900.295312 L 626.210938 899.123437 L 628.085938 898.615625 L 629.960938 898.732812 L 631.796875 899.553125 L 633.671875 901.0375 L 635.546875 903.107812 L 637.421875 905.842187 L 639.296875 909.1625 L 641.171875 913.06875 L 643.046875 917.560937 L 644.882812 922.560937 L 646.757812 928.06875 L 648.632812 934.00625 L 650.507812 940.4125 L 652.382812 947.209375 L 654.257812 954.357812 L 656.09375 961.81875 L 657.96875 969.553125 L 659.84375 977.521875 L 661.71875 985.646875 L 663.59375 993.928125 L 665.46875 1002.2875 L 667.34375 1010.685937 L 669.179688 1019.084375 L 671.054688 1027.44375 L 672.929688 1035.685937 L 674.804688 1043.810937 L 676.679688 1051.701562 L 678.554688 1059.396875 L 680.429688 1066.779687 L 682.265625 1073.85 L 684.140625 1080.56875 L 686.015625 1086.896875 L 687.890625 1092.75625 L 689.765625 1098.146875 L 691.640625 1103.029687 L 693.515625 1107.365625 L 695.351562 1111.154687 L 697.226562 1114.357812 L 699.101562 1116.935937 L 700.976562 1118.889062 L 702.851562 1120.217187 L 704.726562 1120.88125 L 706.601562 1120.88125 L 708.4375 1120.217187 L 710.3125 1118.85 L 712.1875 1116.857812 L 714.0625 1114.1625 L 715.9375 1110.842187 L 717.8125 1106.857812 L 719.6875 1102.248437 L 721.523438 1097.053125 L 723.398438 1091.232812 L 725.273438 1084.826562 L 727.148438 1077.9125 L 729.023438 1070.490625 L 730.898438 1062.560937 L 732.773438 1054.201562 L 734.609375 1045.4125 L 736.484375 1036.232812 L 738.359375 1026.779687 L 740.234375 1017.014062 L 742.109375 1006.975 L 743.984375 996.740625 L 745.859375 986.35 L 747.695312 975.88125 L 749.570312 965.334375 L 751.445312 954.748437 L 753.320312 944.201562 L 755.195312 933.771875 L 757.070312 923.420312 L 758.90625 913.264062 L 760.78125 903.303125 L 762.65625 893.615625 L 764.53125 884.240625 L 766.40625 875.217187 L 768.28125 866.584375 L 770.15625 858.342187 L 771.992188 850.607812 L 773.867188 843.303125 L 775.742188 836.584375 L 777.617188 830.373437 L 779.492188 824.748437 L 781.367188 819.748437 L 783.242188 815.334375 L 785.078125 811.584375 L 786.953125 808.459375 L 788.828125 805.998437 L 790.703125 804.201562 L 792.578125 803.107812 L 794.453125 802.639062 L 796.328125 802.873437 L 798.164062 803.771875 L 800.039062 805.295312 L 801.914062 807.482812 L 803.789062 810.25625 L 805.664062 813.654687 L 807.539062 817.639062 L 809.414062 822.170312 L 811.25 827.209375 L 813.125 832.75625 L 815 838.771875 L 816.875 845.217187 L 818.75 852.053125 L 820.625 859.240625 L 822.460938 866.740625 L 824.335938 874.475 L 826.210938 882.482812 L 828.085938 890.646875 L 829.960938 898.928125 L 831.835938 907.2875 L 833.710938 915.685937 L 835.546875 924.123437 L 837.421875 932.44375 L 839.296875 940.685937 L 841.171875 948.771875 L 843.046875 956.6625 L 844.921875 964.31875 L 846.757812 971.6625 L 848.632812 978.69375 L 850.507812 985.373437 L 852.382812 991.623437 L 854.257812 997.44375 L 856.132812 1002.75625 L 858.007812 1007.6 L 859.84375 1011.896875 L 861.71875 1015.607812 L 863.59375 1018.732812 L 865.46875 1021.232812 L 867.34375 1023.146875 L 869.21875 1024.396875 L 871.09375 1024.982812 L 872.929688 1024.904687 L 874.804688 1024.1625 L 876.679688 1022.75625 L 878.554688 1020.646875 L 880.429688 1017.9125 L 882.304688 1014.514062 L 884.179688 1010.451562 L 886.015625 1005.764062 L 887.890625 1000.490625 L 889.765625 994.63125 L 891.640625 988.185937 L 893.515625 981.19375 L 895.390625 973.69375 L 897.265625 965.725 L 899.101562 957.2875 L 900.976562 948.459375 L 902.851562 939.279687 L 904.726562 929.7875 L 906.601562 919.982812 L 908.476562 909.904687 L 910.3125 899.670312 L 912.1875 889.279687 L 914.0625 878.771875 L 915.9375 868.225 L 917.8125 857.639062 L 919.6875 847.13125 L 921.5625 836.6625 L 923.4375 826.35 L 925.273438 816.232812 L 927.148438 806.310937 L 929.023438 796.6625 L 930.898438 787.2875 L 932.773438 778.303125 L 934.648438 769.709375 L 936.523438 761.545312 L 938.359375 753.810937 L 940.234375 746.623437 L 942.109375 739.904687 L 943.984375 733.771875 L 945.859375 728.225 L 947.734375 723.303125 L 949.570312 718.967187 L 951.445312 715.25625 L 953.320312 712.209375 L 955.195312 709.826562 L 957.070312 708.146875 L 958.945312 707.092187 L 960.820312 706.701562 L 962.65625 707.014062 L 964.53125 707.951562 L 966.40625 709.553125 L 968.28125 711.81875 L 970.15625 714.670312 L 972.03125 718.146875 L 973.90625 722.170312 L 975.742188 726.779687 L 977.617188 731.857812 L 979.492188 737.482812 L 981.367188 743.5375 L 983.242188 750.021875 L 985.117188 756.896875 L 986.992188 764.123437 L 988.828125 771.6625 L 990.703125 779.435937 L 992.578125 787.44375 L 994.453125 795.607812 L 996.328125 803.928125 L 998.203125 812.2875 L 1000.078125 820.725 L 1001.914062 829.123437 L 1003.789062 837.44375 L 1005.664062 845.646875 L 1007.539062 853.732812 L 1009.414062 861.584375 L 1011.289062 869.201562 L 1013.125 876.545312 L 1015 883.5375 L 1016.875 890.139062 L 1018.75 896.35 L 1020.625 902.13125 L 1022.5 907.404687 L 1024.375 912.170312 L 1026.210938 916.389062 L 1028.085938 920.060937 L 1029.960938 923.107812 L 1031.835938 925.56875 L 1033.710938 927.365625 L 1035.585938 928.5375 L 1037.421875 929.084375 L 1039.296875 928.928125 L 1041.171875 928.107812 L 1043.046875 926.623437 L 1044.921875 924.435937 L 1046.796875 921.623437 L 1048.671875 918.146875 L 1050.546875 914.045312 L 1052.382812 909.279687 L 1054.257812 903.928125 L 1056.132812 897.990625 L 1058.007812 891.50625 L 1059.882812 884.435937 L 1061.757812 876.896875 L 1063.59375 868.889062 L 1065.46875 860.4125 L 1067.34375 851.545312 L 1069.21875 842.326562 L 1071.09375 832.75625 L 1072.96875 822.9125 L 1074.84375 812.873437 L 1076.71875 802.6 L 1078.554688 792.170312 L 1080.429688 781.6625 L 1082.304688 771.115625 L 1084.179688 760.529687 L 1086.054688 750.021875 L 1087.890625 739.592187 L 1089.765625 729.279687 L 1091.640625 719.1625 L 1093.515625 709.279687 L 1095.390625 699.670312 L 1097.265625 690.373437 L 1099.140625 681.389062 L 1101.015625 672.834375 L 1102.851562 664.709375 L 1104.726562 657.053125 L 1106.601562 649.904687 L 1108.476562 643.264062 L 1110.351562 637.209375 L 1112.226562 631.740625 L 1114.0625 626.857812 L 1115.9375 622.6 L 1117.8125 618.967187 L 1119.6875 615.998437 L 1121.5625 613.69375 L 1123.4375 612.053125 L 1125.3125 611.076562 L 1127.148438 610.803125 L 1129.023438 611.154687 L 1130.898438 612.170312 L 1132.773438 613.85 L 1134.648438 616.154687 L 1136.523438 619.084375 L 1138.398438 622.639062 L 1140.234375 626.740625 L 1142.109375 631.389062 L 1143.984375 636.545312 L 1145.859375 642.209375 L 1147.734375 648.303125 L 1149.609375 654.865625 L 1151.445312 661.779687 L 1153.359375 669.00625 L 1155.195312 676.584375 L 1157.070312 684.396875 L 1158.945312 692.404687 L 1160.820312 700.607812 L 1162.695312 708.928125 L 1164.53125 717.2875 L 1166.40625 725.725 L 1168.28125 734.123437 L 1170.15625 742.44375 L 1172.03125 750.646875 L 1173.90625 758.69375 L 1175.78125 766.50625 L 1177.65625 774.123437 L 1179.492188 781.389062 L 1181.367188 788.342187 L 1183.242188 794.94375 L 1185.117188 801.076562 L 1186.992188 806.81875 L 1188.867188 812.014062 L 1190.703125 816.740625 L 1192.578125 820.88125 L 1194.453125 824.475 L 1196.328125 827.482812 L 1198.203125 829.865625 L 1200.078125 831.623437 L 1201.953125 832.717187 L 1203.789062 833.146875 L 1205.664062 832.9125 L 1207.539062 832.053125 L 1209.414062 830.490625 L 1211.289062 828.225 L 1213.164062 825.334375 L 1215.039062 821.81875 L 1216.875 817.6 L 1218.75 812.795312 L 1220.625 807.365625 L 1222.5 801.389062 L 1224.375 794.7875 L 1226.210938 787.717187 L 1228.125 780.1 L 1229.960938 772.014062 L 1231.835938 763.498437 L 1233.710938 754.592187 L 1235.585938 745.334375 L 1237.460938 735.764062 L 1239.335938 725.88125 L 1241.171875 715.803125 L 1243.046875 705.529687 L 1244.921875 695.1 L 1246.796875 684.592187 L 1248.671875 674.00625 " transform="matrix(0.1,0,0,-0.1,0,130.01)"/>
<path style="fill:none;stroke-width:5;stroke-linecap:round;stroke-linejoin:round;stroke:rgb(0%,0%,0%);stroke-opacity:1;stroke-miterlimit:10;" d="M 168.671875 913.85 L 170.507812 922.248437 L 172.382812 930.607812 L 174.257812 938.85 L 176.132812 946.975 L 178.007812 954.904687 L 179.882812 962.639062 L 181.757812 970.060937 L 183.59375 977.170312 L 185.46875 983.928125 L 187.34375 990.25625 L 189.21875 996.19375 L 191.09375 1001.623437 L 192.96875 1006.584375 L 194.804688 1010.998437 L 196.679688 1014.826562 L 198.554688 1018.107812 L 200.429688 1020.725 L 202.304688 1022.75625 L 204.179688 1024.1625 L 206.054688 1024.904687 L 207.890625 1024.982812 L 209.765625 1024.396875 L 211.640625 1023.107812 L 213.515625 1021.19375 L 215.390625 1018.576562 L 217.265625 1015.334375 L 219.140625 1011.428125 L 220.976562 1006.896875 L 222.851562 1001.701562 L 224.726562 995.959375 L 226.601562 989.63125 L 228.476562 982.795312 L 230.351562 975.4125 L 232.226562 967.521875 L 234.0625 959.201562 L 235.9375 950.490625 L 237.8125 941.35 L 239.6875 931.896875 L 241.5625 922.170312 L 243.4375 912.170312 L 245.3125 901.975 L 247.148438 891.584375 L 249.023438 881.115625 L 250.898438 870.56875 L 252.773438 859.982812 L 254.648438 849.435937 L 256.523438 838.967187 L 258.398438 828.615625 L 260.234375 818.459375 L 262.109375 808.498437 L 263.984375 798.771875 L 265.859375 789.357812 L 267.734375 780.295312 L 269.609375 771.584375 L 271.484375 763.303125 L 273.320312 755.490625 L 275.195312 748.185937 L 277.070312 741.35 L 278.945312 735.1 L 280.820312 729.435937 L 282.695312 724.31875 L 284.570312 719.865625 L 286.40625 716.0375 L 288.28125 712.834375 L 290.15625 710.334375 L 292.03125 708.459375 L 293.90625 707.248437 L 295.78125 706.740625 L 297.617188 706.896875 L 299.492188 707.717187 L 301.367188 709.1625 L 303.242188 711.271875 L 305.117188 713.967187 L 306.992188 717.326562 L 308.867188 721.232812 L 310.703125 725.685937 L 312.578125 730.685937 L 314.453125 736.19375 L 316.328125 742.170312 L 318.203125 748.576562 L 320.078125 755.334375 L 321.953125 762.482812 L 323.789062 769.94375 L 325.664062 777.678125 L 327.539062 785.646875 L 329.414062 793.771875 L 331.289062 802.053125 L 333.164062 810.4125 L 335.039062 818.85 L 336.875 827.248437 L 338.75 835.607812 L 340.625 843.85 L 342.5 851.935937 L 344.375 859.865625 L 346.25 867.521875 L 348.085938 874.94375 L 349.960938 882.014062 L 351.835938 888.69375 L 353.710938 895.021875 L 355.585938 900.88125 L 357.460938 906.271875 L 359.335938 911.154687 L 361.171875 915.490625 L 363.046875 919.279687 L 364.921875 922.482812 L 366.796875 925.060937 L 368.671875 927.014062 L 370.546875 928.342187 L 372.382812 929.00625 L 374.257812 929.00625 L 376.132812 928.342187 L 378.007812 927.014062 L 379.882812 924.982812 L 381.757812 922.326562 L 383.632812 918.967187 L 385.46875 915.021875 L 387.34375 910.4125 L 389.21875 905.178125 L 391.09375 899.357812 L 392.96875 892.990625 L 394.84375 886.0375 L 396.71875 878.615625 L 398.554688 870.685937 L 400.429688 862.326562 L 402.304688 853.5375 L 404.179688 844.396875 L 406.054688 834.904687 L 407.929688 825.139062 L 409.804688 815.1 L 411.640625 804.904687 L 413.515625 794.514062 L 415.390625 784.00625 L 421.015625 752.365625 L 422.890625 741.896875 L 424.726562 731.545312 L 426.601562 721.389062 L 428.476562 711.467187 L 430.351562 701.779687 L 432.226562 692.404687 L 434.101562 683.38125 L 435.9375 674.709375 L 437.8125 666.50625 L 439.6875 658.732812 L 441.5625 651.467187 L 443.4375 644.709375 L 445.3125 638.498437 L 447.1875 632.9125 L 449.0625 627.873437 L 450.898438 623.459375 L 452.773438 619.709375 L 454.648438 616.584375 L 456.523438 614.1625 L 458.398438 612.365625 L 460.273438 611.232812 L 462.148438 610.803125 L 463.984375 610.998437 L 465.859375 611.896875 L 467.734375 613.420312 L 469.609375 615.607812 L 471.484375 618.38125 L 473.359375 621.779687 L 475.195312 625.764062 L 477.070312 630.295312 L 478.945312 635.334375 L 480.820312 640.920312 L 482.695312 646.935937 L 484.570312 653.38125 L 486.445312 660.178125 L 488.28125 667.365625 L 490.15625 674.865625 L 492.03125 682.639062 L 493.90625 690.607812 L 495.78125 698.771875 L 497.65625 707.053125 L 499.53125 715.451562 L 501.367188 723.85 L 503.242188 732.248437 L 505.117188 740.56875 L 506.992188 748.810937 L 508.867188 756.896875 L 510.742188 764.7875 L 512.617188 772.44375 L 514.453125 779.7875 L 516.328125 786.81875 L 518.203125 793.498437 L 520.078125 799.748437 L 521.953125 805.56875 L 523.828125 810.920312 L 525.703125 815.725 L 527.539062 820.021875 L 529.414062 823.732812 L 531.289062 826.857812 L 533.164062 829.396875 L 535.039062 831.271875 L 536.914062 832.521875 L 538.75 833.107812 L 540.625 833.029687 L 542.5 832.2875 L 544.375 830.88125 L 546.25 828.810937 L 548.125 826.0375 L 550 822.639062 L 551.835938 818.615625 L 553.710938 813.928125 L 555.585938 808.615625 L 557.460938 802.75625 L 559.335938 796.310937 L 561.210938 789.31875 L 563.046875 781.81875 L 564.921875 773.85 L 566.796875 765.451562 L 568.671875 756.623437 L 570.546875 747.44375 L 572.421875 737.9125 L 574.296875 728.107812 L 576.132812 718.06875 L 578.007812 707.795312 L 579.882812 697.404687 L 581.757812 686.935937 L 583.632812 676.35 L 587.382812 655.25625 L 589.21875 644.826562 L 591.09375 634.514062 L 592.96875 624.357812 L 594.84375 614.435937 L 596.71875 604.7875 L 598.59375 595.451562 L 600.46875 586.467187 L 602.304688 577.834375 L 604.179688 569.670312 L 606.054688 561.975 L 607.929688 554.748437 L 609.804688 548.06875 L 611.679688 541.935937 L 613.554688 536.389062 L 615.390625 531.428125 L 617.265625 527.092187 L 619.140625 523.420312 L 621.015625 520.373437 L 622.890625 517.990625 L 624.765625 516.271875 L 626.601562 515.217187 L 628.476562 514.865625 L 630.351562 515.139062 L 632.226562 516.115625 L 634.101562 517.717187 L 635.976562 519.94375 L 637.851562 522.795312 L 639.6875 526.271875 L 641.5625 530.295312 L 643.4375 534.904687 L 645.3125 540.021875 L 647.1875 545.607812 L 649.0625 551.701562 L 650.9375 558.185937 L 652.8125 565.060937 L 654.648438 572.2875 L 656.523438 579.7875 L 658.398438 587.560937 L 660.273438 595.56875 L 662.148438 603.771875 L 664.023438 612.053125 L 665.859375 620.451562 L 669.609375 637.248437 L 671.484375 645.56875 L 673.359375 653.810937 L 675.234375 661.857812 L 677.109375 669.748437 L 678.945312 677.326562 L 680.820312 684.670312 L 682.695312 691.6625 L 684.570312 698.303125 L 686.445312 704.514062 L 688.320312 710.25625 L 690.195312 715.529687 L 692.03125 720.295312 L 693.90625 724.514062 L 695.78125 728.185937 L 697.65625 731.232812 L 699.53125 733.69375 L 701.40625 735.529687 L 703.28125 736.701562 L 705.117188 737.209375 L 706.992188 737.053125 L 708.867188 736.232812 L 710.742188 734.748437 L 712.617188 732.6 L 714.492188 729.7875 L 716.367188 726.310937 L 718.203125 722.170312 L 720.078125 717.44375 L 721.953125 712.092187 L 723.828125 706.154687 L 725.703125 699.63125 L 727.578125 692.6 L 729.414062 685.021875 L 731.289062 677.014062 L 733.164062 668.5375 L 735.039062 659.670312 L 736.914062 650.451562 L 738.789062 640.920312 L 740.664062 631.076562 L 742.5 620.998437 L 744.375 610.725 L 746.25 600.334375 L 748.125 589.826562 L 750 579.240625 L 751.875 568.69375 L 753.710938 558.146875 L 755.585938 547.717187 L 757.460938 537.44375 L 759.335938 527.326562 L 761.210938 517.404687 L 763.085938 507.795312 L 764.960938 498.498437 L 766.796875 489.553125 L 768.671875 480.998437 L 770.546875 472.873437 L 772.421875 465.217187 L 774.296875 458.06875 L 776.171875 451.428125 L 778.046875 445.334375 L 779.882812 439.865625 L 781.757812 434.982812 L 783.632812 430.725 L 785.507812 427.092187 L 787.382812 424.123437 L 789.257812 421.81875 L 791.132812 420.178125 L 792.96875 419.240625 L 794.84375 418.928125 L 796.71875 419.279687 L 798.59375 420.334375 L 800.46875 422.014062 L 802.34375 424.31875 L 804.179688 427.248437 L 806.054688 430.764062 L 807.929688 434.865625 L 809.804688 439.514062 L 811.679688 444.670312 L 813.554688 450.334375 L 815.429688 456.467187 L 817.265625 462.990625 L 819.140625 469.904687 L 821.015625 477.170312 L 822.890625 484.709375 L 824.765625 492.521875 L 826.640625 500.56875 L 828.515625 508.732812 L 830.351562 517.053125 L 835.976562 542.248437 L 837.851562 550.56875 L 839.726562 558.771875 L 841.601562 566.81875 L 843.4375 574.670312 L 845.3125 582.248437 L 847.1875 589.553125 L 849.0625 596.50625 L 850.9375 603.06875 L 852.8125 609.240625 L 854.6875 614.94375 L 856.523438 620.178125 L 858.398438 624.865625 L 860.273438 629.045312 L 862.148438 632.639062 L 864.023438 635.607812 L 865.898438 637.990625 L 867.773438 639.748437 L 869.609375 640.842187 L 871.484375 641.310937 L 873.359375 641.076562 L 875.234375 640.178125 L 877.109375 638.615625 L 878.984375 636.389062 L 880.859375 633.498437 L 882.695312 629.94375 L 884.570312 625.764062 L 886.445312 620.920312 L 888.320312 615.529687 L 890.195312 609.514062 L 892.070312 602.951562 L 893.945312 595.842187 L 895.78125 588.225 L 897.65625 580.178125 L 899.53125 571.6625 L 901.40625 562.75625 L 903.28125 553.498437 L 905.15625 543.889062 L 906.992188 534.045312 L 908.867188 523.928125 L 910.742188 513.654687 L 912.617188 503.225 L 914.492188 492.717187 L 916.367188 482.13125 " transform="matrix(0.1,0,0,-0.1,0,130.01)"/>
<path style="fill:none;stroke-width:5;stroke-linecap:round;stroke-linejoin:round;stroke:rgb(0%,0%,0%);stroke-opacity:1;stroke-miterlimit:10;" d="M 851.40625 519.63125 L 168.671875 913.85 " transform="matrix(0.1,0,0,-0.1,0,130.01)"/>
<path style="fill-rule:nonzero;fill:rgb(0%,0%,0%);fill-opacity:1;stroke-width:5;stroke-linecap:round;stroke-linejoin:round;stroke:rgb(0%,0%,0%);stroke-opacity:1;stroke-miterlimit:10;" d="M 916.367188 482.13125 L 861.445312 537.053125 L 841.367188 502.248437 Z M 916.367188 482.13125 " transform="matrix(0.1,0,0,-0.1,0,130.01)"/>
<g clip-path="url(#clip2)" clip-rule="nonzero">
<path style="fill:none;stroke-width:5;stroke-linecap:round;stroke-linejoin:round;stroke:rgb(50%,50%,50%);stroke-opacity:1;stroke-miterlimit:10;" d="M 1414.804688 194.357812 L 1414.804688 578.06875 L 1082.5 386.232812 L 1082.5 2.482812 Z M 1414.804688 194.357812 " transform="matrix(0.1,0,0,-0.1,0,130.01)"/>
</g>
<path style="fill:none;stroke-width:5;stroke-linecap:round;stroke-linejoin:round;stroke:rgb(0%,0%,0%);stroke-opacity:1;stroke-miterlimit:10;" d="M 1248.671875 357.44375 L 1248.671875 290.295312 " transform="matrix(0.1,0,0,-0.1,0,130.01)"/>
<path style=" stroke:none;fill-rule:nonzero;fill:rgb(0%,0%,0%);fill-opacity:1;" d="M 124.867188 87.550781 L 124.863281 87.558594 L 124.863281 87.566406 L 124.855469 87.589844 L 124.847656 87.628906 L 124.839844 87.652344 L 124.832031 87.679688 L 124.816406 87.742188 L 124.804688 87.78125 L 124.796875 87.820312 L 124.78125 87.863281 L 124.757812 87.957031 L 124.742188 88.011719 L 124.730469 88.066406 L 124.714844 88.125 L 124.695312 88.1875 L 124.679688 88.25 L 124.660156 88.316406 L 124.640625 88.386719 L 124.621094 88.460938 L 124.582031 88.617188 L 124.558594 88.699219 L 124.535156 88.785156 L 124.488281 88.964844 L 124.464844 89.058594 L 124.410156 89.253906 L 124.382812 89.355469 L 124.355469 89.460938 L 124.324219 89.570312 L 124.296875 89.679688 L 124.265625 89.792969 L 124.203125 90.027344 L 124.171875 90.148438 L 124.136719 90.273438 L 124.105469 90.398438 L 124.070312 90.527344 L 124.035156 90.660156 L 123.996094 90.792969 L 123.925781 91.066406 L 123.886719 91.207031 L 123.808594 91.496094 L 123.730469 91.792969 L 123.6875 91.945312 L 123.648438 92.097656 L 123.605469 92.253906 L 123.476562 92.734375 L 123.390625 93.0625 L 123.34375 93.230469 L 123.300781 93.402344 L 123.160156 93.917969 L 123.113281 94.097656 L 123.066406 94.265625 L 126.664062 94.265625 L 126.621094 94.097656 L 126.574219 93.917969 L 126.433594 93.402344 L 126.390625 93.230469 L 126.34375 93.0625 L 126.257812 92.734375 L 126.210938 92.574219 L 126.171875 92.414062 L 126.128906 92.253906 L 126.085938 92.097656 L 126.042969 91.945312 L 126.003906 91.792969 L 125.925781 91.496094 L 125.847656 91.207031 L 125.808594 91.066406 L 125.773438 90.929688 L 125.734375 90.792969 L 125.664062 90.527344 L 125.628906 90.398438 L 125.597656 90.273438 L 125.5625 90.148438 L 125.53125 90.027344 L 125.46875 89.792969 L 125.4375 89.679688 L 125.40625 89.570312 L 125.378906 89.460938 L 125.351562 89.355469 L 125.324219 89.253906 L 125.269531 89.058594 L 125.246094 88.964844 L 125.199219 88.785156 L 125.175781 88.699219 L 125.152344 88.617188 L 125.132812 88.539062 L 125.109375 88.460938 L 125.089844 88.386719 L 125.070312 88.316406 L 125.054688 88.25 L 125.035156 88.1875 L 125.019531 88.125 L 125.003906 88.066406 L 124.988281 88.011719 L 124.976562 87.957031 L 124.964844 87.910156 L 124.949219 87.863281 L 124.9375 87.820312 L 124.929688 87.78125 L 124.917969 87.742188 L 124.902344 87.679688 L 124.894531 87.652344 L 124.886719 87.628906 L 124.878906 87.589844 L 124.871094 87.578125 L 124.871094 87.566406 L 124.867188 87.558594 L 124.867188 87.550781 "/>
<path style="fill:none;stroke-width:5;stroke-linecap:round;stroke-linejoin:round;stroke:rgb(0%,0%,0%);stroke-opacity:1;stroke-miterlimit:10;" d="M 1248.671875 424.592187 L 1248.632812 424.514062 L 1248.632812 424.435937 L 1248.554688 424.201562 L 1248.476562 423.810937 L 1248.398438 423.576562 L 1248.320312 423.303125 L 1248.164062 422.678125 L 1248.046875 422.2875 L 1247.96875 421.896875 L 1247.8125 421.467187 L 1247.578125 420.529687 L 1247.421875 419.982812 L 1247.304688 419.435937 L 1247.148438 418.85 L 1246.953125 418.225 L 1246.796875 417.6 L 1246.601562 416.935937 L 1246.40625 416.232812 L 1246.210938 415.490625 L 1245.820312 413.928125 L 1245.585938 413.107812 L 1245.351562 412.248437 L 1244.882812 410.451562 L 1244.648438 409.514062 L 1244.101562 407.560937 L 1243.828125 406.545312 L 1243.554688 405.490625 L 1243.242188 404.396875 L 1242.96875 403.303125 L 1242.65625 402.170312 L 1242.03125 399.826562 L 1241.71875 398.615625 L 1241.367188 397.365625 L 1241.054688 396.115625 L 1240.703125 394.826562 L 1240.351562 393.498437 L 1239.960938 392.170312 L 1239.257812 389.435937 L 1238.867188 388.029687 L 1238.085938 385.139062 L 1237.304688 382.170312 L 1236.875 380.646875 L 1236.484375 379.123437 L 1236.054688 377.560937 L 1234.765625 372.75625 L 1233.90625 369.475 L 1233.4375 367.795312 L 1233.007812 366.076562 L 1231.601562 360.920312 L 1231.132812 359.123437 L 1230.664062 357.44375 L 1266.640625 357.44375 L 1266.210938 359.123437 L 1265.742188 360.920312 L 1264.335938 366.076562 L 1263.90625 367.795312 L 1263.4375 369.475 L 1262.578125 372.75625 L 1262.109375 374.357812 L 1261.71875 375.959375 L 1261.289062 377.560937 L 1260.859375 379.123437 L 1260.429688 380.646875 L 1260.039062 382.170312 L 1259.257812 385.139062 L 1258.476562 388.029687 L 1258.085938 389.435937 L 1257.734375 390.803125 L 1257.34375 392.170312 L 1256.640625 394.826562 L 1256.289062 396.115625 L 1255.976562 397.365625 L 1255.625 398.615625 L 1255.3125 399.826562 L 1254.6875 402.170312 L 1254.375 403.303125 L 1254.0625 404.396875 L 1253.789062 405.490625 L 1253.515625 406.545312 L 1253.242188 407.560937 L 1252.695312 409.514062 L 1252.460938 410.451562 L 1251.992188 412.248437 L 1251.757812 413.107812 L 1251.523438 413.928125 L 1251.328125 414.709375 L 1251.09375 415.490625 L 1250.898438 416.232812 L 1250.703125 416.935937 L 1250.546875 417.6 L 1250.351562 418.225 L 1250.195312 418.85 L 1250.039062 419.435937 L 1249.882812 419.982812 L 1249.765625 420.529687 L 1249.648438 420.998437 L 1249.492188 421.467187 L 1249.375 421.896875 L 1249.296875 422.2875 L 1249.179688 422.678125 L 1249.023438 423.303125 L 1248.945312 423.576562 L 1248.867188 423.810937 L 1248.789062 424.201562 L 1248.710938 424.31875 L 1248.710938 424.435937 L 1248.671875 424.514062 Z M 1248.671875 424.592187 " transform="matrix(0.1,0,0,-0.1,0,130.01)"/>
<path style="fill:none;stroke-width:5;stroke-linecap:round;stroke-linejoin:round;stroke:rgb(0%,0%,0%);stroke-opacity:1;stroke-miterlimit:10;" d="M 1248.671875 223.146875 L 1248.671875 290.295312 " transform="matrix(0.1,0,0,-0.1,0,130.01)"/>
<path style=" stroke:none;fill-rule:nonzero;fill:rgb(0%,0%,0%);fill-opacity:1;" d="M 124.867188 114.410156 L 124.867188 114.40625 L 124.871094 114.398438 L 124.871094 114.386719 L 124.878906 114.371094 L 124.882812 114.355469 L 124.886719 114.332031 L 124.894531 114.308594 L 124.902344 114.28125 L 124.917969 114.21875 L 124.929688 114.179688 L 124.9375 114.140625 L 124.949219 114.097656 L 124.964844 114.050781 L 124.976562 114.003906 L 124.988281 113.953125 L 125.035156 113.777344 L 125.054688 113.710938 L 125.070312 113.644531 L 125.089844 113.574219 L 125.109375 113.5 L 125.132812 113.421875 L 125.152344 113.34375 L 125.175781 113.261719 L 125.222656 113.089844 L 125.269531 112.902344 L 125.324219 112.707031 L 125.351562 112.605469 L 125.378906 112.5 L 125.40625 112.390625 L 125.4375 112.28125 L 125.46875 112.167969 L 125.53125 111.933594 L 125.5625 111.8125 L 125.597656 111.6875 L 125.628906 111.5625 L 125.699219 111.304688 L 125.734375 111.167969 L 125.773438 111.035156 L 125.808594 110.894531 L 125.886719 110.613281 L 125.925781 110.464844 L 125.964844 110.320312 L 126.042969 110.015625 L 126.085938 109.863281 L 126.171875 109.550781 L 126.210938 109.390625 L 126.257812 109.226562 L 126.34375 108.898438 L 126.390625 108.730469 L 126.433594 108.5625 L 126.480469 108.390625 L 126.527344 108.214844 L 126.574219 108.042969 L 126.621094 107.867188 L 126.664062 107.695312 L 123.066406 107.695312 L 123.113281 107.867188 L 123.160156 108.042969 L 123.207031 108.214844 L 123.253906 108.390625 L 123.300781 108.5625 L 123.34375 108.730469 L 123.390625 108.898438 L 123.519531 109.390625 L 123.5625 109.550781 L 123.648438 109.863281 L 123.6875 110.015625 L 123.730469 110.167969 L 123.769531 110.320312 L 123.808594 110.464844 L 123.847656 110.613281 L 123.925781 110.894531 L 123.960938 111.035156 L 123.996094 111.167969 L 124.035156 111.304688 L 124.105469 111.5625 L 124.136719 111.6875 L 124.171875 111.8125 L 124.203125 111.933594 L 124.265625 112.167969 L 124.296875 112.28125 L 124.324219 112.390625 L 124.355469 112.5 L 124.382812 112.605469 L 124.410156 112.707031 L 124.464844 112.902344 L 124.511719 113.089844 L 124.558594 113.261719 L 124.582031 113.34375 L 124.621094 113.5 L 124.640625 113.574219 L 124.660156 113.644531 L 124.679688 113.710938 L 124.695312 113.777344 L 124.714844 113.835938 L 124.730469 113.894531 L 124.742188 113.953125 L 124.757812 114.003906 L 124.78125 114.097656 L 124.796875 114.140625 L 124.804688 114.179688 L 124.816406 114.21875 L 124.832031 114.28125 L 124.839844 114.308594 L 124.847656 114.332031 L 124.851562 114.355469 L 124.859375 114.386719 L 124.863281 114.398438 L 124.863281 114.40625 L 124.867188 114.410156 "/>
<path style="fill:none;stroke-width:5;stroke-linecap:round;stroke-linejoin:round;stroke:rgb(0%,0%,0%);stroke-opacity:1;stroke-miterlimit:10;" d="M 1248.671875 155.998437 L 1248.671875 156.0375 L 1248.710938 156.115625 L 1248.710938 156.232812 L 1248.789062 156.389062 L 1248.828125 156.545312 L 1248.867188 156.779687 L 1248.945312 157.014062 L 1249.023438 157.2875 L 1249.179688 157.9125 L 1249.296875 158.303125 L 1249.375 158.69375 L 1249.492188 159.123437 L 1249.648438 159.592187 L 1249.765625 160.060937 L 1249.882812 160.56875 L 1250.351562 162.326562 L 1250.546875 162.990625 L 1250.703125 163.654687 L 1250.898438 164.357812 L 1251.09375 165.1 L 1251.328125 165.88125 L 1251.523438 166.6625 L 1251.757812 167.482812 L 1252.226562 169.201562 L 1252.695312 171.076562 L 1253.242188 173.029687 L 1253.515625 174.045312 L 1253.789062 175.1 L 1254.0625 176.19375 L 1254.375 177.2875 L 1254.6875 178.420312 L 1255.3125 180.764062 L 1255.625 181.975 L 1255.976562 183.225 L 1256.289062 184.475 L 1256.992188 187.053125 L 1257.34375 188.420312 L 1257.734375 189.748437 L 1258.085938 191.154687 L 1258.867188 193.967187 L 1259.257812 195.451562 L 1259.648438 196.896875 L 1260.429688 199.94375 L 1260.859375 201.467187 L 1261.71875 204.592187 L 1262.109375 206.19375 L 1262.578125 207.834375 L 1263.4375 211.115625 L 1263.90625 212.795312 L 1264.335938 214.475 L 1264.804688 216.19375 L 1265.273438 217.951562 L 1265.742188 219.670312 L 1266.210938 221.428125 L 1266.640625 223.146875 L 1230.664062 223.146875 L 1231.132812 221.428125 L 1231.601562 219.670312 L 1232.070312 217.951562 L 1232.539062 216.19375 L 1233.007812 214.475 L 1233.4375 212.795312 L 1233.90625 211.115625 L 1235.195312 206.19375 L 1235.625 204.592187 L 1236.484375 201.467187 L 1236.875 199.94375 L 1237.304688 198.420312 L 1237.695312 196.896875 L 1238.085938 195.451562 L 1238.476562 193.967187 L 1239.257812 191.154687 L 1239.609375 189.748437 L 1239.960938 188.420312 L 1240.351562 187.053125 L 1241.054688 184.475 L 1241.367188 183.225 L 1241.71875 181.975 L 1242.03125 180.764062 L 1242.65625 178.420312 L 1242.96875 177.2875 L 1243.242188 176.19375 L 1243.554688 175.1 L 1243.828125 174.045312 L 1244.101562 173.029687 L 1244.648438 171.076562 L 1245.117188 169.201562 L 1245.585938 167.482812 L 1245.820312 166.6625 L 1246.210938 165.1 L 1246.40625 164.357812 L 1246.601562 163.654687 L 1246.796875 162.990625 L 1246.953125 162.326562 L 1247.148438 161.740625 L 1247.304688 161.154687 L 1247.421875 160.56875 L 1247.578125 160.060937 L 1247.8125 159.123437 L 1247.96875 158.69375 L 1248.046875 158.303125 L 1248.164062 157.9125 L 1248.320312 157.2875 L 1248.398438 157.014062 L 1248.476562 156.779687 L 1248.515625 156.545312 L 1248.59375 156.232812 L 1248.632812 156.115625 L 1248.632812 156.0375 Z M 1248.671875 155.998437 " transform="matrix(0.1,0,0,-0.1,0,130.01)"/>
</g>
</svg>
