<?xml version="1.0" encoding="UTF-8"?>
<svg xmlns="http://www.w3.org/2000/svg" xmlns:xlink="http://www.w3.org/1999/xlink" width="141.73pt" height="130.01pt" viewBox="0 0 141.73 130.01" version="1.1">
<defs>
<clipPath id="clip1">
  <path d="M 0 67 L 109 67 L 109 130.011719 L 0 130.011719 Z M 0 67 "/>
</clipPath>
<clipPath id="clip2">
  <path d="M 108 71 L 141.730469 71 L 141.730469 130.011719 L 108 130.011719 Z M 108 71 "/>
</clipPath>
</defs>
<g id="surface1">
<path style="fill:none;stroke-width:5;stroke-linecap:round;stroke-linejoin:round;stroke:rgb(50%,50%,50%);stroke-opacity:1;stroke-miterlimit:10;" d="M 500.976562 913.85 L 1248.671875 482.13125 L 1248.671875 865.88125 L 500.976562 1297.560937 Z M 500.976562 913.85 " transform="matrix(0.1,0,0,-0.1,0,130.01)"/>
<g clip-path="url(#clip1)" clip-rule="nonzero">
<path style="fill:none;stroke-width:5;stroke-linecap:round;stroke-linejoin:round;stroke:rgb(50%,50%,50%);stroke-opacity:1;stroke-miterlimit:10;" d="M 334.804688 626.0375 L 1082.5 194.357812 L 750.195312 2.482812 L 2.5 434.201562 Z M 334.804688 626.0375 " transform="matrix(0.1,0,0,-0.1,0,130.01)"/>
</g>
<path style="fill:none;stroke-width:5;stroke-linecap:round;stroke-linejoin:round;stroke:rgb(50%,50%,50%);stroke-opacity:1;stroke-dasharray:42.6356,42.6356;stroke-miterlimit:10;" d="M 800.039062 31.271875 L 800.039062 414.982812 " transform="matrix(0.1,0,0,-0.1,0,130.01)"/>
<path style="fill:none;stroke-width:5;stroke-linecap:round;stroke-linejoin:round;stroke:rgb(50%,50%,50%);stroke-opacity:1;stroke-dasharray:39.8478,39.8478;stroke-miterlimit:10;" d="M 1248.671875 674.00625 L 800.039062 414.982812 " transform="matrix(0.1,0,0,-0.1,0,130.01)"/>
<path style="fill:none;stroke-width:5;stroke-linecap:round;stroke-linejoin:round;stroke:rgb(0%,0%,0%);stroke-opacity:1;stroke-miterlimit:10;" d="M 311.40625 965.725 L 210.195312 1024.1625 " transform="matrix(0.1,0,0,-0.1,0,130.01)"/>
<path style="fill-rule:nonzero;fill:rgb(0%,0%,0%);fill-opacity:1;stroke-width:5;stroke-linecap:round;stroke-linejoin:round;stroke:rgb(0%,0%,0%);stroke-opacity:1;stroke-miterlimit:10;" d="M 376.367188 928.225 L 321.445312 983.146875 L 301.367188 948.303125 Z M 376.367188 928.225 " transform="matrix(0.1,0,0,-0.1,0,130.01)"/>
<path style=" stroke:none;fill-rule:nonzero;fill:rgb(0%,0%,0%);fill-opacity:1;" d="M 29.503906 21.246094 C 29.207031 20.398438 28.265625 20.398438 28.113281 20.398438 C 28.039062 20.398438 27.910156 20.398438 27.910156 20.519531 C 27.910156 20.613281 27.980469 20.625 28.039062 20.640625 C 28.21875 20.660156 28.363281 20.6875 28.550781 21.03125 C 28.671875 21.257812 29.898438 24.824219 29.898438 24.847656 C 29.898438 24.859375 29.886719 24.871094 29.792969 24.964844 L 26.691406 28.101562 C 26.550781 28.242188 26.453125 28.339844 26.453125 28.496094 C 26.453125 28.660156 26.597656 28.804688 26.789062 28.804688 C 26.835938 28.804688 26.964844 28.78125 27.039062 28.710938 C 27.230469 28.53125 28.933594 26.445312 30.019531 25.15625 C 30.328125 26.085938 30.710938 27.183594 31.078125 28.183594 C 31.140625 28.363281 31.199219 28.53125 31.367188 28.6875 C 31.484375 28.792969 31.507812 28.792969 31.84375 28.792969 L 32.070312 28.792969 C 32.117188 28.792969 32.199219 28.792969 32.199219 28.695312 C 32.199219 28.648438 32.1875 28.636719 32.140625 28.589844 C 32.035156 28.460938 31.949219 28.242188 31.902344 28.101562 L 29.503906 21.246094 "/>
<path style=" stroke:none;fill-rule:nonzero;fill:rgb(50%,50%,50%);fill-opacity:1;" d="M 19.285156 68.429688 C 18.902344 68.5 18.761719 68.785156 18.761719 69.011719 C 18.761719 69.300781 18.988281 69.394531 19.152344 69.394531 C 19.511719 69.394531 19.761719 69.085938 19.761719 68.761719 C 19.761719 68.261719 19.191406 68.035156 18.691406 68.035156 C 17.960938 68.035156 17.558594 68.75 17.449219 68.976562 C 17.175781 68.082031 16.4375 68.035156 16.222656 68.035156 C 15.003906 68.035156 14.363281 69.597656 14.363281 69.859375 C 14.363281 69.90625 14.410156 69.964844 14.492188 69.964844 C 14.589844 69.964844 14.613281 69.894531 14.636719 69.847656 C 15.042969 68.523438 15.839844 68.273438 16.1875 68.273438 C 16.722656 68.273438 16.832031 68.777344 16.832031 69.0625 C 16.832031 69.324219 16.757812 69.597656 16.613281 70.167969 L 16.210938 71.800781 C 16.03125 72.519531 15.683594 73.175781 15.054688 73.175781 C 14.996094 73.175781 14.695312 73.175781 14.445312 73.019531 C 14.875 72.933594 14.96875 72.578125 14.96875 72.433594 C 14.96875 72.195312 14.792969 72.054688 14.566406 72.054688 C 14.277344 72.054688 13.96875 72.304688 13.96875 72.683594 C 13.96875 73.183594 14.527344 73.410156 15.042969 73.410156 C 15.613281 73.410156 16.019531 72.957031 16.269531 72.472656 C 16.460938 73.175781 17.058594 73.410156 17.496094 73.410156 C 18.714844 73.410156 19.355469 71.851562 19.355469 71.589844 C 19.355469 71.527344 19.308594 71.480469 19.238281 71.480469 C 19.128906 71.480469 19.117188 71.542969 19.082031 71.636719 C 18.761719 72.683594 18.070312 73.175781 17.535156 73.175781 C 17.117188 73.175781 16.890625 72.863281 16.890625 72.375 C 16.890625 72.113281 16.9375 71.921875 17.128906 71.136719 L 17.542969 69.515625 C 17.722656 68.800781 18.128906 68.273438 18.675781 68.273438 C 18.699219 68.273438 19.035156 68.273438 19.285156 68.429688 "/>
<path style=" stroke:none;fill-rule:nonzero;fill:rgb(50%,50%,50%);fill-opacity:1;" d="M 43.945312 22.1875 C 43.625 22.640625 43.160156 23.046875 42.574219 23.046875 C 42.433594 23.046875 41.859375 23.023438 41.683594 22.476562 C 41.71875 22.484375 41.777344 22.484375 41.800781 22.484375 C 42.160156 22.484375 42.398438 22.175781 42.398438 21.902344 C 42.398438 21.628906 42.171875 21.53125 41.992188 21.53125 C 41.800781 21.53125 41.382812 21.675781 41.382812 22.257812 C 41.382812 22.867188 41.894531 23.285156 42.574219 23.285156 C 43.769531 23.285156 44.972656 22.1875 45.304688 20.863281 L 46.472656 16.214844 C 46.484375 16.15625 46.511719 16.085938 46.511719 16.015625 C 46.511719 15.835938 46.367188 15.714844 46.1875 15.714844 C 46.082031 15.714844 45.832031 15.761719 45.734375 16.121094 L 44.851562 19.625 C 44.792969 19.839844 44.792969 19.863281 44.699219 19.996094 C 44.460938 20.328125 44.066406 20.734375 43.496094 20.734375 C 42.824219 20.734375 42.765625 20.078125 42.765625 19.757812 C 42.765625 19.074219 43.089844 18.160156 43.410156 17.300781 C 43.542969 16.953125 43.613281 16.785156 43.613281 16.550781 C 43.613281 16.046875 43.253906 15.597656 42.671875 15.597656 C 41.574219 15.597656 41.132812 17.324219 41.132812 17.421875 C 41.132812 17.46875 41.183594 17.527344 41.265625 17.527344 C 41.371094 17.527344 41.382812 17.480469 41.433594 17.3125 C 41.71875 16.3125 42.171875 15.835938 42.636719 15.835938 C 42.742188 15.835938 42.945312 15.835938 42.945312 16.226562 C 42.945312 16.535156 42.816406 16.882812 42.636719 17.335938 C 42.050781 18.898438 42.050781 19.292969 42.050781 19.578125 C 42.050781 20.710938 42.863281 20.972656 43.457031 20.972656 C 43.804688 20.972656 44.234375 20.863281 44.652344 20.421875 L 44.660156 20.4375 C 44.484375 21.140625 44.363281 21.605469 43.945312 22.1875 "/>
<path style="fill:none;stroke-width:5;stroke-linecap:round;stroke-linejoin:round;stroke:rgb(100%,0%,0%);stroke-opacity:1;stroke-miterlimit:10;" d="M 284.960938 597.248437 L 286.5625 596.0375 L 287.539062 594.435937 L 287.96875 592.521875 L 287.8125 590.295312 L 287.109375 587.717187 L 285.859375 584.826562 L 284.101562 581.6625 L 281.796875 578.185937 L 279.023438 574.435937 L 275.78125 570.373437 L 272.109375 566.115625 L 268.007812 561.584375 L 263.515625 556.81875 L 258.671875 551.857812 L 253.515625 546.740625 L 248.085938 541.428125 L 242.382812 535.998437 L 236.484375 530.451562 L 230.429688 524.7875 L 224.21875 519.045312 L 217.929688 513.264062 L 211.601562 507.44375 L 205.273438 501.584375 L 198.945312 495.803125 L 192.695312 490.021875 L 186.5625 484.31875 L 180.585938 478.732812 L 174.804688 473.225 L 169.257812 467.873437 L 163.945312 462.639062 L 158.984375 457.6 L 154.335938 452.795312 L 150.078125 448.146875 L 146.171875 443.771875 L 142.734375 439.592187 L 139.765625 435.725 L 137.226562 432.13125 L 135.234375 428.810937 L 133.75 425.803125 L 132.8125 423.06875 L 132.421875 420.685937 L 132.578125 418.654687 L 133.320312 416.896875 L 134.648438 415.529687 L 136.5625 414.435937 L 139.023438 413.732812 L 142.109375 413.342187 L 145.742188 413.264062 L 149.921875 413.5375 L 154.648438 414.123437 L 159.960938 415.021875 L 165.742188 416.19375 L 172.03125 417.678125 L 178.828125 419.435937 L 186.054688 421.467187 L 193.710938 423.69375 L 201.757812 426.19375 L 210.195312 428.928125 L 218.945312 431.81875 L 228.007812 434.865625 L 237.34375 438.107812 L 246.875 441.467187 L 256.601562 444.904687 L 266.484375 448.459375 L 276.484375 452.092187 L 286.5625 455.725 L 296.640625 459.396875 L 306.71875 463.029687 L 316.71875 466.6625 L 326.640625 470.25625 L 336.445312 473.732812 L 346.054688 477.13125 L 355.46875 480.4125 L 364.609375 483.5375 L 373.476562 486.467187 L 381.992188 489.240625 L 390.195312 491.81875 L 397.96875 494.1625 L 405.351562 496.271875 L 412.304688 498.107812 L 418.75 499.670312 L 424.726562 500.959375 L 430.195312 501.975 L 435.117188 502.639062 L 439.492188 503.029687 L 443.320312 503.06875 L 446.5625 502.795312 L 449.21875 502.170312 L 451.328125 501.232812 L 452.851562 499.94375 L 453.789062 498.303125 L 454.140625 496.35 L 453.945312 494.084375 L 453.164062 491.467187 L 451.875 488.576562 L 450.039062 485.373437 L 447.695312 481.857812 L 444.84375 478.06875 L 441.5625 474.00625 L 437.8125 469.670312 L 433.671875 465.139062 L 429.140625 460.373437 L 424.257812 455.373437 L 419.101562 450.217187 L 413.632812 444.904687 L 407.890625 439.435937 L 401.992188 433.889062 L 395.898438 428.225 L 389.6875 422.482812 L 383.398438 416.6625 L 377.070312 410.842187 L 370.703125 405.021875 L 364.414062 399.240625 L 358.164062 393.459375 L 352.03125 387.795312 L 346.09375 382.170312 L 340.3125 376.701562 L 334.804688 371.35 L 329.53125 366.154687 L 324.609375 361.154687 L 320 356.310937 L 315.78125 351.701562 L 311.953125 347.365625 L 308.554688 343.225 L 305.585938 339.396875 L 303.164062 335.803125 L 301.210938 332.521875 L 299.765625 329.553125 L 298.90625 326.857812 L 298.554688 324.514062 L 298.789062 322.482812 L 299.609375 320.803125 L 300.976562 319.435937 L 302.96875 318.420312 L 305.507812 317.717187 L 308.632812 317.365625 L 312.304688 317.365625 L 316.5625 317.639062 L 321.367188 318.264062 L 326.71875 319.201562 L 332.578125 320.4125 L 338.945312 321.935937 L 345.78125 323.69375 L 353.046875 325.764062 L 360.742188 328.029687 L 368.828125 330.56875 L 377.304688 333.303125 L 386.09375 336.19375 L 395.195312 339.279687 L 404.53125 342.521875 L 414.101562 345.920312 L 423.867188 349.357812 L 433.75 352.9125 L 443.75 356.545312 L 453.828125 360.217187 L 463.90625 363.85 L 473.984375 367.521875 L 483.984375 371.154687 L 493.90625 374.709375 L 503.671875 378.185937 L 513.28125 381.584375 L 522.65625 384.826562 L 531.757812 387.9125 L 540.585938 390.88125 L 549.101562 393.615625 L 557.226562 396.154687 L 564.960938 398.459375 L 572.304688 400.529687 L 579.179688 402.365625 L 585.585938 403.889062 L 591.523438 405.178125 L 596.914062 406.115625 L 601.757812 406.779687 L 606.09375 407.092187 L 609.84375 407.13125 L 613.046875 406.779687 L 615.664062 406.154687 L 617.695312 405.139062 L 619.140625 403.85 L 620 402.170312 L 620.3125 400.178125 L 620.039062 397.873437 L 619.21875 395.25625 L 617.851562 392.2875 L 615.9375 389.045312 L 613.554688 385.490625 L 610.664062 381.701562 L 607.304688 377.6 L 603.554688 373.264062 L 599.335938 368.69375 L 594.765625 363.889062 L 589.882812 358.889062 L 584.648438 353.732812 L 579.140625 348.38125 L 573.4375 342.9125 L 567.460938 337.326562 L 561.367188 331.6625 L 555.15625 325.88125 L 548.867188 320.1 L 542.5 314.279687 L 529.84375 302.639062 L 523.632812 296.896875 L 517.539062 291.232812 L 511.601562 285.646875 L 505.859375 280.178125 L 500.351562 274.826562 L 495.15625 269.670312 L 490.234375 264.670312 L 485.664062 259.865625 L 481.484375 255.295312 L 477.695312 250.959375 L 474.335938 246.857812 L 471.484375 243.029687 L 469.0625 239.514062 L 467.1875 236.232812 L 465.820312 233.303125 L 465 230.646875 L 464.726562 228.342187 L 465 226.35 L 465.898438 224.709375 L 467.34375 223.38125 L 469.375 222.404687 L 471.992188 221.740625 L 475.15625 221.428125 L 478.90625 221.428125 L 483.242188 221.779687 L 488.085938 222.44375 L 493.515625 223.38125 L 499.414062 224.63125 L 505.820312 226.19375 L 512.695312 227.990625 L 520.039062 230.060937 L 527.773438 232.404687 L 535.9375 234.94375 L 544.414062 237.678125 L 553.242188 240.607812 L 562.382812 243.732812 L 571.757812 246.975 L 581.328125 250.334375 L 591.09375 253.85 L 601.015625 257.404687 L 611.015625 261.0375 L 621.09375 264.670312 L 641.25 272.014062 L 651.25 275.607812 L 661.171875 279.1625 L 670.898438 282.639062 L 680.46875 285.998437 L 689.804688 289.240625 L 698.90625 292.326562 L 707.695312 295.25625 L 716.171875 297.990625 L 724.257812 300.490625 L 731.953125 302.795312 L 739.257812 304.826562 L 746.09375 306.623437 L 752.421875 308.146875 L 758.28125 309.357812 L 763.632812 310.295312 L 768.4375 310.88125 L 772.695312 311.19375 L 776.40625 311.154687 L 779.53125 310.803125 L 782.070312 310.139062 L 784.023438 309.084375 L 785.390625 307.75625 L 786.210938 306.0375 L 786.445312 304.00625 L 786.132812 301.6625 L 785.234375 299.00625 L 783.828125 296.0375 L 781.875 292.75625 L 779.414062 289.1625 L 776.484375 285.295312 L 773.085938 281.19375 L 769.257812 276.81875 L 765 272.209375 L 760.390625 267.404687 L 755.46875 262.404687 L 750.195312 257.209375 L 744.6875 251.857812 L 738.90625 246.35 L 732.96875 240.764062 L 726.835938 235.060937 L 720.625 229.31875 L 714.296875 223.5375 L 707.96875 217.678125 L 701.601562 211.857812 L 695.3125 206.076562 L 689.101562 200.334375 L 683.007812 194.670312 L 677.109375 189.084375 L 671.40625 183.615625 L 665.9375 178.303125 L 660.742188 173.146875 L 655.859375 168.185937 L 651.328125 163.420312 L 647.1875 158.85 L 643.4375 154.553125 L 640.15625 150.490625 L 637.34375 146.701562 L 635 143.185937 L 633.164062 139.982812 L 631.835938 137.053125 L 631.09375 134.475 L 630.898438 132.170312 L 631.25 130.217187 L 632.1875 128.615625 L 633.671875 127.326562 L 635.78125 126.389062 L 638.4375 125.764062 L 641.71875 125.490625 L 645.507812 125.529687 L 649.921875 125.920312 L 654.84375 126.584375 L 660.273438 127.560937 L 666.25 128.85 L 672.734375 130.451562 L 679.648438 132.2875 L 687.03125 134.396875 L 694.804688 136.740625 L 703.007812 139.279687 L 711.5625 142.053125 L 720.390625 145.021875 L 729.570312 148.146875 L 738.945312 151.428125 L 748.554688 154.7875 L 758.359375 158.303125 L 768.28125 161.857812 L 778.320312 165.490625 L 788.359375 169.1625 L 798.476562 172.834375 L 808.515625 176.467187 L 818.515625 180.1 L 828.398438 183.615625 L 838.125 187.092187 L 847.695312 190.451562 L 856.992188 193.654687 L 866.054688 196.740625 L 874.804688 199.63125 L 883.242188 202.326562 L 891.289062 204.826562 L 898.945312 207.092187 L 906.171875 209.123437 L 912.96875 210.88125 L 919.257812 212.365625 L 925.078125 213.5375 L 930.351562 214.435937 L 935.078125 215.021875 L 939.296875 215.25625 L 942.929688 215.217187 L 945.976562 214.826562 L 948.4375 214.084375 L 950.351562 213.029687 L 951.679688 211.623437 L 952.421875 209.904687 L 952.578125 207.834375 L 952.1875 205.451562 L 951.25 202.75625 L 949.765625 199.748437 L 947.773438 196.428125 L 945.273438 192.834375 L 942.265625 188.928125 L 938.828125 184.7875 L 934.960938 180.4125 L 930.664062 175.764062 L 926.015625 170.920312 L 921.054688 165.88125 L 915.78125 160.685937 L 910.195312 155.334375 L 904.414062 149.826562 L 898.4375 144.201562 L 892.304688 138.498437 L 886.054688 132.75625 L 879.765625 126.935937 L 873.398438 121.115625 L 867.070312 115.295312 L 860.78125 109.514062 L 854.570312 103.771875 L 848.515625 98.107812 L 842.617188 92.560937 L 836.914062 87.092187 L 831.484375 81.81875 L 826.328125 76.6625 L 821.484375 71.701562 L 816.992188 66.975 L 812.890625 62.44375 L 809.21875 58.146875 L 805.976562 54.123437 L 803.203125 50.373437 L 800.898438 46.896875 L 799.140625 43.69375 L 797.890625 40.842187 L 797.1875 38.264062 L 797.03125 36.0375 L 797.460938 34.123437 L 798.476562 32.521875 L 800.039062 31.271875 " transform="matrix(0.1,0,0,-0.1,0,130.01)"/>
<path style="fill:none;stroke-width:5;stroke-linecap:round;stroke-linejoin:round;stroke:rgb(0%,0%,100%);stroke-opacity:1;stroke-miterlimit:10;" d="M 500.976562 1105.685937 L 502.851562 1114.084375 L 504.6875 1122.44375 L 506.5625 1130.725 L 508.4375 1138.85 L 510.3125 1146.779687 L 512.1875 1154.475 L 514.0625 1161.896875 L 515.9375 1169.00625 L 517.773438 1175.764062 L 519.648438 1182.13125 L 521.523438 1188.029687 L 523.398438 1193.498437 L 525.273438 1198.420312 L 527.148438 1202.834375 L 529.023438 1206.6625 L 530.859375 1209.94375 L 532.734375 1212.6 L 534.609375 1214.63125 L 536.484375 1216.0375 L 538.359375 1216.740625 L 540.234375 1216.81875 L 542.109375 1216.232812 L 543.945312 1214.982812 L 545.820312 1213.029687 L 547.695312 1210.451562 L 549.570312 1207.170312 L 551.445312 1203.264062 L 553.320312 1198.732812 L 555.195312 1193.576562 L 557.03125 1187.834375 L 558.90625 1181.50625 L 560.78125 1174.63125 L 562.65625 1167.248437 L 564.53125 1159.396875 L 566.40625 1151.076562 L 568.28125 1142.326562 L 570.117188 1133.225 L 571.992188 1123.771875 L 573.867188 1114.00625 L 575.742188 1104.045312 L 577.617188 1093.810937 L 579.492188 1083.459375 L 581.328125 1072.990625 L 583.203125 1062.44375 L 585.078125 1051.857812 L 586.953125 1041.310937 L 588.828125 1030.842187 L 590.703125 1020.490625 L 592.578125 1010.295312 L 594.414062 1000.334375 L 596.289062 990.607812 L 598.164062 981.19375 L 600.039062 972.13125 L 601.914062 963.459375 L 603.789062 955.178125 L 605.664062 947.365625 L 607.5 940.021875 L 609.375 933.225 L 611.25 926.975 L 613.125 921.271875 L 615 916.19375 L 616.875 911.740625 L 618.710938 907.873437 L 620.585938 904.709375 L 622.460938 902.170312 L 624.335938 900.295312 L 626.210938 899.123437 L 628.085938 898.615625 L 629.960938 898.732812 L 631.796875 899.553125 L 633.671875 901.0375 L 635.546875 903.107812 L 637.421875 905.842187 L 639.296875 909.1625 L 641.171875 913.06875 L 643.046875 917.560937 L 644.882812 922.560937 L 646.757812 928.06875 L 648.632812 934.00625 L 650.507812 940.4125 L 652.382812 947.209375 L 654.257812 954.357812 L 656.09375 961.81875 L 657.96875 969.553125 L 659.84375 977.521875 L 661.71875 985.646875 L 663.59375 993.928125 L 665.46875 1002.2875 L 667.34375 1010.685937 L 669.179688 1019.084375 L 671.054688 1027.44375 L 672.929688 1035.685937 L 674.804688 1043.810937 L 676.679688 1051.701562 L 678.554688 1059.396875 L 680.429688 1066.779687 L 682.265625 1073.85 L 684.140625 1080.56875 L 686.015625 1086.896875 L 687.890625 1092.75625 L 689.765625 1098.146875 L 691.640625 1103.029687 L 693.515625 1107.365625 L 695.351562 1111.154687 L 697.226562 1114.357812 L 699.101562 1116.935937 L 700.976562 1118.889062 L 702.851562 1120.217187 L 704.726562 1120.88125 L 706.601562 1120.88125 L 708.4375 1120.217187 L 710.3125 1118.85 L 712.1875 1116.857812 L 714.0625 1114.1625 L 715.9375 1110.842187 L 717.8125 1106.857812 L 719.6875 1102.248437 L 721.523438 1097.053125 L 723.398438 1091.232812 L 725.273438 1084.826562 L 727.148438 1077.9125 L 729.023438 1070.490625 L 730.898438 1062.560937 L 732.773438 1054.201562 L 734.609375 1045.4125 L 736.484375 1036.232812 L 738.359375 1026.779687 L 740.234375 1017.014062 L 742.109375 1006.975 L 743.984375 996.740625 L 745.859375 986.35 L 747.695312 975.88125 L 749.570312 965.334375 L 751.445312 954.748437 L 753.320312 944.201562 L 755.195312 933.771875 L 757.070312 923.420312 L 758.90625 913.264062 L 760.78125 903.303125 L 762.65625 893.615625 L 764.53125 884.240625 L 766.40625 875.217187 L 768.28125 866.584375 L 770.15625 858.342187 L 771.992188 850.607812 L 773.867188 843.303125 L 775.742188 836.584375 L 777.617188 830.373437 L 779.492188 824.748437 L 781.367188 819.748437 L 783.242188 815.334375 L 785.078125 811.584375 L 786.953125 808.459375 L 788.828125 805.998437 L 790.703125 804.201562 L 792.578125 803.107812 L 794.453125 802.639062 L 796.328125 802.873437 L 798.164062 803.771875 L 800.039062 805.295312 L 801.914062 807.482812 L 803.789062 810.25625 L 805.664062 813.654687 L 807.539062 817.639062 L 809.414062 822.170312 L 811.25 827.209375 L 813.125 832.75625 L 815 838.771875 L 816.875 845.217187 L 818.75 852.053125 L 820.625 859.240625 L 822.460938 866.740625 L 824.335938 874.475 L 826.210938 882.482812 L 828.085938 890.646875 L 829.960938 898.928125 L 831.835938 907.2875 L 833.710938 915.685937 L 835.546875 924.123437 L 837.421875 932.44375 L 839.296875 940.685937 L 841.171875 948.771875 L 843.046875 956.6625 L 844.921875 964.31875 L 846.757812 971.6625 L 848.632812 978.69375 L 850.507812 985.373437 L 852.382812 991.623437 L 854.257812 997.44375 L 856.132812 1002.75625 L 858.007812 1007.6 L 859.84375 1011.896875 L 861.71875 1015.607812 L 863.59375 1018.732812 L 865.46875 1021.232812 L 867.34375 1023.146875 L 869.21875 1024.396875 L 871.09375 1024.982812 L 872.929688 1024.904687 L 874.804688 1024.1625 L 876.679688 1022.75625 L 878.554688 1020.646875 L 880.429688 1017.9125 L 882.304688 1014.514062 L 884.179688 1010.451562 L 886.015625 1005.764062 L 887.890625 1000.490625 L 889.765625 994.63125 L 891.640625 988.185937 L 893.515625 981.19375 L 895.390625 973.69375 L 897.265625 965.725 L 899.101562 957.2875 L 900.976562 948.459375 L 902.851562 939.279687 L 904.726562 929.7875 L 906.601562 919.982812 L 908.476562 909.904687 L 910.3125 899.670312 L 912.1875 889.279687 L 914.0625 878.771875 L 915.9375 868.225 L 917.8125 857.639062 L 919.6875 847.13125 L 921.5625 836.6625 L 923.4375 826.35 L 925.273438 816.232812 L 927.148438 806.310937 L 929.023438 796.6625 L 930.898438 787.2875 L 932.773438 778.303125 L 934.648438 769.709375 L 936.523438 761.545312 L 938.359375 753.810937 L 940.234375 746.623437 L 942.109375 739.904687 L 943.984375 733.771875 L 945.859375 728.225 L 947.734375 723.303125 L 949.570312 718.967187 L 951.445312 715.25625 L 953.320312 712.209375 L 955.195312 709.826562 L 957.070312 708.146875 L 958.945312 707.092187 L 960.820312 706.701562 L 962.65625 707.014062 L 964.53125 707.951562 L 966.40625 709.553125 L 968.28125 711.81875 L 970.15625 714.670312 L 972.03125 718.146875 L 973.90625 722.170312 L 975.742188 726.779687 L 977.617188 731.857812 L 979.492188 737.482812 L 981.367188 743.5375 L 983.242188 750.021875 L 985.117188 756.896875 L 986.992188 764.123437 L 988.828125 771.6625 L 990.703125 779.435937 L 992.578125 787.44375 L 994.453125 795.607812 L 996.328125 803.928125 L 998.203125 812.2875 L 1000.078125 820.725 L 1001.914062 829.123437 L 1003.789062 837.44375 L 1005.664062 845.646875 L 1007.539062 853.732812 L 1009.414062 861.584375 L 1011.289062 869.201562 L 1013.125 876.545312 L 1015 883.5375 L 1016.875 890.139062 L 1018.75 896.35 L 1020.625 902.13125 L 1022.5 907.404687 L 1024.375 912.170312 L 1026.210938 916.389062 L 1028.085938 920.060937 L 1029.960938 923.107812 L 1031.835938 925.56875 L 1033.710938 927.365625 L 1035.585938 928.5375 L 1037.421875 929.084375 L 1039.296875 928.928125 L 1041.171875 928.107812 L 1043.046875 926.623437 L 1044.921875 924.435937 L 1046.796875 921.623437 L 1048.671875 918.146875 L 1050.546875 914.045312 L 1052.382812 909.279687 L 1054.257812 903.928125 L 1056.132812 897.990625 L 1058.007812 891.50625 L 1059.882812 884.435937 L 1061.757812 876.896875 L 1063.59375 868.889062 L 1065.46875 860.4125 L 1067.34375 851.545312 L 1069.21875 842.326562 L 1071.09375 832.75625 L 1072.96875 822.9125 L 1074.84375 812.873437 L 1076.71875 802.6 L 1078.554688 792.170312 L 1080.429688 781.6625 L 1082.304688 771.115625 L 1084.179688 760.529687 L 1086.054688 750.021875 L 1087.890625 739.592187 L 1089.765625 729.279687 L 1091.640625 719.1625 L 1093.515625 709.279687 L 1095.390625 699.670312 L 1097.265625 690.373437 L 1099.140625 681.389062 L 1101.015625 672.834375 L 1102.851562 664.709375 L 1104.726562 657.053125 L 1106.601562 649.904687 L 1108.476562 643.264062 L 1110.351562 637.209375 L 1112.226562 631.740625 L 1114.0625 626.857812 L 1115.9375 622.6 L 1117.8125 618.967187 L 1119.6875 615.998437 L 1121.5625 613.69375 L 1123.4375 612.053125 L 1125.3125 611.076562 L 1127.148438 610.803125 L 1129.023438 611.154687 L 1130.898438 612.170312 L 1132.773438 613.85 L 1134.648438 616.154687 L 1136.523438 619.084375 L 1138.398438 622.639062 L 1140.234375 626.740625 L 1142.109375 631.389062 L 1143.984375 636.545312 L 1145.859375 642.209375 L 1147.734375 648.303125 L 1149.609375 654.865625 L 1151.445312 661.779687 L 1153.359375 669.00625 L 1155.195312 676.584375 L 1157.070312 684.396875 L 1158.945312 692.404687 L 1160.820312 700.607812 L 1162.695312 708.928125 L 1164.53125 717.2875 L 1166.40625 725.725 L 1168.28125 734.123437 L 1170.15625 742.44375 L 1172.03125 750.646875 L 1173.90625 758.69375 L 1175.78125 766.50625 L 1177.65625 774.123437 L 1179.492188 781.389062 L 1181.367188 788.342187 L 1183.242188 794.94375 L 1185.117188 801.076562 L 1186.992188 806.81875 L 1188.867188 812.014062 L 1190.703125 816.740625 L 1192.578125 820.88125 L 1194.453125 824.475 L 1196.328125 827.482812 L 1198.203125 829.865625 L 1200.078125 831.623437 L 1201.953125 832.717187 L 1203.789062 833.146875 L 1205.664062 832.9125 L 1207.539062 832.053125 L 1209.414062 830.490625 L 1211.289062 828.225 L 1213.164062 825.334375 L 1215.039062 821.81875 L 1216.875 817.6 L 1218.75 812.795312 L 1220.625 807.365625 L 1222.5 801.389062 L 1224.375 794.7875 L 1226.210938 787.717187 L 1228.125 780.1 L 1229.960938 772.014062 L 1231.835938 763.498437 L 1233.710938 754.592187 L 1235.585938 745.334375 L 1237.460938 735.764062 L 1239.335938 725.88125 L 1241.171875 715.803125 L 1243.046875 705.529687 L 1244.921875 695.1 L 1246.796875 684.592187 L 1248.671875 674.00625 " transform="matrix(0.1,0,0,-0.1,0,130.01)"/>
<path style="fill:none;stroke-width:5;stroke-linecap:round;stroke-linejoin:round;stroke:rgb(0%,0%,0%);stroke-opacity:1;stroke-miterlimit:10;" d="M 284.960938 980.998437 L 286.5625 989.240625 L 287.539062 997.092187 L 287.96875 1004.514062 L 287.8125 1011.467187 L 287.109375 1017.9125 L 285.859375 1023.810937 L 284.101562 1029.1625 L 281.796875 1033.85 L 279.023438 1037.9125 L 275.78125 1041.310937 L 272.109375 1044.045312 L 268.007812 1046.0375 L 263.515625 1047.326562 L 258.671875 1047.834375 L 253.515625 1047.639062 L 248.085938 1046.6625 L 242.382812 1044.982812 L 236.484375 1042.521875 L 230.429688 1039.31875 L 224.21875 1035.4125 L 217.929688 1030.764062 L 211.601562 1025.4125 L 205.273438 1019.435937 L 198.945312 1012.75625 L 192.695312 1005.490625 L 186.5625 997.6 L 180.585938 989.1625 L 174.804688 980.217187 L 169.257812 970.764062 L 163.945312 960.88125 L 158.984375 950.607812 L 154.335938 939.982812 L 150.078125 929.045312 L 146.171875 917.873437 L 142.734375 906.467187 L 139.765625 894.94375 L 137.226562 883.303125 L 135.234375 871.623437 L 133.75 859.94375 L 132.8125 848.303125 L 132.421875 836.779687 L 132.578125 825.451562 L 133.320312 814.31875 L 134.648438 803.459375 L 136.5625 792.9125 L 139.023438 782.717187 L 142.109375 772.9125 L 145.742188 763.576562 L 149.921875 754.748437 L 154.648438 746.428125 L 159.960938 738.69375 L 165.742188 731.545312 L 172.03125 725.021875 L 178.828125 719.1625 L 186.054688 714.00625 L 193.710938 709.514062 L 201.757812 705.764062 L 210.195312 702.75625 L 218.945312 700.451562 L 228.007812 698.928125 L 237.34375 698.146875 L 246.875 698.107812 L 256.601562 698.810937 L 266.484375 700.25625 L 276.484375 702.404687 L 286.5625 705.295312 L 296.640625 708.85 L 306.71875 713.06875 L 316.71875 717.9125 L 326.640625 723.38125 L 336.445312 729.396875 L 346.054688 735.998437 L 355.46875 743.06875 L 364.609375 750.56875 L 373.476562 758.5375 L 381.992188 766.857812 L 390.195312 775.490625 L 397.96875 784.435937 L 405.351562 793.576562 L 412.304688 802.873437 L 418.75 812.326562 L 424.726562 821.857812 L 430.195312 831.389062 L 435.117188 840.88125 L 439.492188 850.295312 L 443.320312 859.553125 L 446.5625 868.615625 L 449.21875 877.44375 L 451.328125 885.998437 L 452.851562 894.201562 L 453.789062 902.014062 L 454.140625 909.396875 L 453.945312 916.271875 L 453.164062 922.678125 L 451.875 928.5375 L 450.039062 933.771875 L 447.695312 938.420312 L 444.84375 942.404687 L 441.5625 945.725 L 437.8125 948.38125 L 433.671875 950.295312 L 429.140625 951.467187 L 424.257812 951.935937 L 419.101562 951.623437 L 413.632812 950.607812 L 407.890625 948.810937 L 401.992188 946.271875 L 395.898438 942.990625 L 389.6875 939.00625 L 383.398438 934.279687 L 377.070312 928.85 L 370.703125 922.795312 L 364.414062 916.0375 L 358.164062 908.69375 L 352.03125 900.764062 L 346.09375 892.248437 L 340.3125 883.264062 L 334.804688 873.771875 L 329.53125 863.85 L 324.609375 853.498437 L 320 842.834375 L 315.78125 831.896875 L 311.953125 820.685937 L 308.554688 809.279687 L 305.585938 797.717187 L 303.164062 786.076562 L 301.210938 774.396875 L 299.765625 762.717187 L 298.90625 751.076562 L 298.554688 739.592187 L 298.789062 728.264062 L 299.609375 717.170312 L 300.976562 706.35 L 302.96875 695.803125 L 305.507812 685.685937 L 308.632812 675.920312 L 312.304688 666.6625 L 316.5625 657.873437 L 321.367188 649.63125 L 326.71875 641.935937 L 332.578125 634.865625 L 338.945312 628.420312 L 345.78125 622.639062 L 353.046875 617.560937 L 360.742188 613.146875 L 368.828125 609.475 L 377.304688 606.545312 L 386.09375 604.31875 L 395.195312 602.873437 L 404.53125 602.170312 L 414.101562 602.209375 L 423.867188 603.029687 L 433.75 604.553125 L 443.75 606.779687 L 453.828125 609.709375 L 463.90625 613.342187 L 473.984375 617.639062 L 483.984375 622.560937 L 493.90625 628.06875 L 503.671875 634.201562 L 513.28125 640.803125 L 522.65625 647.951562 L 531.757812 655.529687 L 540.585938 663.498437 L 549.101562 671.857812 L 557.226562 680.529687 L 564.960938 689.475 L 572.304688 698.654687 L 579.179688 707.990625 L 585.585938 717.44375 L 591.523438 726.975 L 596.914062 736.50625 L 601.757812 745.998437 L 606.09375 755.373437 L 609.84375 764.63125 L 613.046875 773.69375 L 615.664062 782.482812 L 617.695312 790.998437 L 619.140625 799.1625 L 620 806.896875 L 620.3125 814.240625 L 620.039062 821.076562 L 619.21875 827.44375 L 617.851562 833.185937 L 615.9375 838.38125 L 613.554688 842.951562 L 610.664062 846.896875 L 607.304688 850.139062 L 603.554688 852.678125 L 599.335938 854.514062 L 594.765625 855.646875 L 589.882812 855.998437 L 584.648438 855.646875 L 579.140625 854.514062 L 573.4375 852.639062 L 567.460938 850.021875 L 561.367188 846.6625 L 555.15625 842.560937 L 548.867188 837.795312 L 542.5 832.2875 L 536.171875 826.154687 L 529.84375 819.31875 L 523.632812 811.896875 L 517.539062 803.928125 L 511.601562 795.373437 L 505.859375 786.271875 L 500.351562 776.740625 L 495.15625 766.779687 L 490.234375 756.428125 L 485.664062 745.725 L 481.484375 734.709375 L 477.695312 723.498437 L 474.335938 712.053125 L 471.484375 700.490625 L 469.0625 688.85 L 467.1875 677.13125 L 465.820312 665.490625 L 465 653.889062 L 464.726562 642.404687 L 465 631.076562 L 465.898438 620.021875 L 467.34375 609.201562 L 469.375 598.732812 L 471.992188 588.654687 L 475.15625 578.967187 L 478.90625 569.709375 L 483.242188 560.998437 L 488.085938 552.795312 L 493.515625 545.178125 L 499.414062 538.185937 L 505.820312 531.81875 L 512.695312 526.115625 L 520.039062 521.076562 L 527.773438 516.779687 L 535.9375 513.185937 L 544.414062 510.334375 L 553.242188 508.185937 L 562.382812 506.81875 L 571.757812 506.232812 L 581.328125 506.35 L 591.09375 507.209375 L 601.015625 508.810937 L 611.015625 511.154687 L 621.09375 514.1625 L 631.171875 517.873437 L 641.25 522.209375 L 651.25 527.209375 L 661.171875 532.795312 L 670.898438 538.967187 L 680.46875 545.646875 L 689.804688 552.834375 L 698.90625 560.451562 L 707.695312 568.498437 L 716.171875 576.896875 L 724.257812 585.607812 L 731.953125 594.553125 L 739.257812 603.771875 L 746.09375 613.107812 L 752.421875 622.560937 L 758.28125 632.092187 L 763.632812 641.623437 L 768.4375 651.115625 L 772.695312 660.490625 L 776.40625 669.709375 L 779.53125 678.732812 L 782.070312 687.521875 L 784.023438 695.998437 L 785.390625 704.084375 L 786.210938 711.81875 L 786.445312 719.084375 L 786.132812 725.88125 L 785.234375 732.170312 L 783.828125 737.873437 L 781.875 742.990625 L 779.414062 747.482812 L 776.484375 751.35 L 773.085938 754.514062 L 769.257812 756.975 L 765 758.732812 L 760.390625 759.7875 L 755.46875 760.060937 L 750.195312 759.592187 L 744.6875 758.420312 L 738.90625 756.467187 L 732.96875 753.732812 L 726.835938 750.295312 L 720.625 746.154687 L 714.296875 741.271875 L 707.96875 735.725 L 701.601562 729.475 L 695.3125 722.6 L 689.101562 715.139062 L 683.007812 707.053125 L 677.109375 698.459375 L 671.40625 689.31875 L 665.9375 679.709375 L 660.742188 669.709375 L 655.859375 659.31875 L 651.328125 648.576562 L 647.1875 637.560937 L 643.4375 626.310937 L 640.15625 614.865625 L 637.34375 603.264062 L 635 591.623437 L 633.164062 579.904687 L 631.835938 568.264062 L 631.09375 556.6625 L 630.898438 545.217187 L 631.25 533.928125 L 632.1875 522.873437 L 633.671875 512.092187 L 635.78125 501.6625 L 638.4375 491.623437 L 641.71875 481.975 L 645.507812 472.795312 L 649.921875 464.123437 L 654.84375 455.998437 L 660.273438 448.459375 L 666.25 441.50625 L 672.734375 435.217187 L 679.648438 429.592187 L 687.03125 424.63125 L 694.804688 420.4125 L 703.007812 416.896875 L 711.5625 414.123437 L 720.390625 412.092187 L 729.570312 410.803125 L 738.945312 410.25625 L 748.554688 410.490625 L 758.359375 411.428125 L 768.28125 413.107812 L 778.320312 415.529687 L 788.359375 418.615625 L 798.476562 422.404687 L 808.515625 426.81875 L 818.515625 431.896875 L 828.398438 437.521875 L 838.125 443.732812 L 847.695312 450.490625 L 856.992188 457.717187 L 866.054688 465.4125 L 874.804688 473.459375 L 883.242188 481.896875 L 891.289062 490.646875 L 898.945312 499.670312 L 906.171875 508.85 L 912.96875 518.225 L 919.257812 527.717187 L 925.078125 537.248437 L 930.351562 546.740625 L 935.078125 556.232812 L 939.296875 565.607812 L 942.929688 574.7875 L 945.976562 583.810937 L 948.4375 592.560937 L 950.351562 600.959375 L 951.679688 609.045312 L 952.421875 616.701562 L 952.578125 623.928125 L 952.1875 630.685937 L 951.25 636.896875 L 949.765625 642.560937 L 947.773438 647.6 L 945.273438 652.014062 L 942.265625 655.803125 L 938.828125 658.889062 L 934.960938 661.310937 L 930.664062 662.951562 L 926.015625 663.928125 L 921.054688 664.123437 L 915.78125 663.576562 L 910.195312 662.2875 L 904.414062 660.25625 L 898.4375 657.482812 L 892.304688 653.967187 L 886.054688 649.709375 L 879.765625 644.748437 L 873.398438 639.123437 L 867.070312 632.834375 L 860.78125 625.88125 L 854.570312 618.342187 L 848.515625 610.178125 L 842.617188 601.50625 L 836.914062 592.365625 L 831.484375 582.717187 L 826.328125 572.639062 L 821.484375 562.209375 L 816.992188 551.428125 L 812.890625 540.373437 L 809.21875 529.084375 L 805.976562 517.639062 L 803.203125 506.0375 L 800.898438 494.396875 L 799.140625 482.678125 L 797.890625 471.0375 L 797.1875 459.435937 L 797.03125 447.990625 L 797.460938 436.740625 L 798.476562 425.725 L 800.039062 414.982812 " transform="matrix(0.1,0,0,-0.1,0,130.01)"/>
<path style="fill:none;stroke-width:5;stroke-linecap:round;stroke-linejoin:round;stroke:rgb(0%,0%,0%);stroke-opacity:1;stroke-miterlimit:10;" d="M 851.40625 519.63125 L 168.671875 913.85 " transform="matrix(0.1,0,0,-0.1,0,130.01)"/>
<path style="fill-rule:nonzero;fill:rgb(0%,0%,0%);fill-opacity:1;stroke-width:5;stroke-linecap:round;stroke-linejoin:round;stroke:rgb(0%,0%,0%);stroke-opacity:1;stroke-miterlimit:10;" d="M 916.367188 482.13125 L 861.445312 537.053125 L 841.367188 502.248437 Z M 916.367188 482.13125 " transform="matrix(0.1,0,0,-0.1,0,130.01)"/>
<g clip-path="url(#clip2)" clip-rule="nonzero">
<path style="fill:none;stroke-width:5;stroke-linecap:round;stroke-linejoin:round;stroke:rgb(50%,50%,50%);stroke-opacity:1;stroke-miterlimit:10;" d="M 1414.804688 194.357812 L 1414.804688 578.06875 L 1082.5 386.232812 L 1082.5 2.482812 Z M 1414.804688 194.357812 " transform="matrix(0.1,0,0,-0.1,0,130.01)"/>
</g>
<path style="fill:none;stroke-width:5;stroke-linecap:round;stroke-linejoin:round;stroke:rgb(0%,0%,0%);stroke-opacity:1;stroke-miterlimit:10;" d="M 1176.953125 143.146875 L 1174.53125 144.00625 L 1171.757812 145.139062 L 1169.0625 146.428125 L 1166.445312 147.834375 L 1163.867188 149.396875 L 1161.40625 151.115625 L 1159.0625 152.951562 L 1156.757812 154.904687 L 1154.570312 157.014062 L 1152.460938 159.279687 L 1150.46875 161.623437 L 1148.554688 164.123437 L 1146.757812 166.740625 L 1145.039062 169.475 L 1143.4375 172.365625 L 1141.914062 175.334375 L 1140.546875 178.420312 L 1139.21875 181.623437 L 1138.046875 184.94375 L 1136.992188 188.342187 L 1136.015625 191.857812 L 1135.15625 195.451562 L 1134.414062 199.1625 L 1133.789062 202.951562 L 1133.28125 206.81875 L 1132.890625 210.803125 L 1132.578125 214.826562 L 1132.421875 218.967187 L 1132.34375 223.146875 L 1132.421875 227.404687 L 1132.578125 231.701562 L 1132.890625 236.076562 L 1133.28125 240.490625 L 1133.789062 244.982812 L 1134.414062 249.475 L 1135.15625 254.045312 L 1136.015625 258.654687 L 1136.992188 263.264062 L 1138.046875 267.9125 L 1139.21875 272.6 L 1140.546875 277.2875 L 1141.914062 282.014062 L 1143.4375 286.701562 L 1145.039062 291.428125 L 1146.757812 296.154687 L 1148.554688 300.842187 L 1150.46875 305.56875 L 1152.460938 310.25625 L 1154.570312 314.904687 L 1156.757812 319.553125 L 1159.0625 324.1625 L 1161.40625 328.732812 L 1163.867188 333.264062 L 1166.445312 337.75625 L 1169.0625 342.209375 L 1171.757812 346.623437 L 1174.53125 350.959375 L 1177.382812 355.25625 L 1180.3125 359.475 L 1183.28125 363.615625 L 1186.367188 367.717187 L 1189.453125 371.701562 L 1192.65625 375.646875 L 1195.859375 379.475 L 1199.140625 383.225 L 1202.460938 386.896875 L 1205.859375 390.451562 L 1209.257812 393.889062 L 1212.734375 397.2875 L 1216.210938 400.529687 L 1219.726562 403.654687 L 1223.28125 406.701562 L 1226.875 409.63125 L 1230.46875 412.44375 L 1234.101562 415.1 L 1237.734375 417.678125 L 1241.367188 420.1 L 1245.039062 422.404687 L 1248.671875 424.592187 " transform="matrix(0.1,0,0,-0.1,0,130.01)"/>
<path style=" stroke:none;fill-rule:nonzero;fill:rgb(0%,0%,0%);fill-opacity:1;" d="M 124.867188 114.410156 L 124.464844 114.519531 L 124.0625 114.613281 L 123.664062 114.699219 L 123.273438 114.765625 L 122.886719 114.824219 L 122.503906 114.867188 L 122.128906 114.894531 L 121.757812 114.910156 L 121.390625 114.914062 L 121.035156 114.902344 L 120.683594 114.878906 L 120.339844 114.84375 L 120.003906 114.792969 L 119.679688 114.726562 L 119.359375 114.652344 L 119.046875 114.5625 L 118.746094 114.457031 L 118.453125 114.34375 L 118.203125 114.230469 L 117.160156 117.234375 L 117.382812 117.292969 L 117.675781 117.351562 L 117.972656 117.394531 L 118.273438 117.417969 L 118.578125 117.429688 L 118.886719 117.421875 L 119.195312 117.402344 L 119.507812 117.363281 L 119.820312 117.3125 L 120.136719 117.242188 L 120.453125 117.160156 L 120.773438 117.058594 L 121.089844 116.945312 L 121.410156 116.8125 L 121.730469 116.667969 L 122.050781 116.507812 L 122.367188 116.332031 L 122.6875 116.140625 L 123.003906 115.933594 L 123.320312 115.714844 L 123.632812 115.480469 L 123.945312 115.234375 L 124.257812 114.972656 L 124.5625 114.699219 L 124.867188 114.410156 "/>
<path style="fill:none;stroke-width:5;stroke-linecap:round;stroke-linejoin:round;stroke:rgb(0%,0%,0%);stroke-opacity:1;stroke-miterlimit:10;" d="M 1248.671875 155.998437 L 1244.648438 154.904687 L 1240.625 153.967187 L 1236.640625 153.107812 L 1232.734375 152.44375 L 1228.867188 151.857812 L 1225.039062 151.428125 L 1221.289062 151.154687 L 1217.578125 150.998437 L 1213.90625 150.959375 L 1210.351562 151.076562 L 1206.835938 151.310937 L 1203.398438 151.6625 L 1200.039062 152.170312 L 1196.796875 152.834375 L 1193.59375 153.576562 L 1190.46875 154.475 L 1187.460938 155.529687 L 1184.53125 156.6625 L 1182.03125 157.795312 L 1171.601562 127.75625 L 1173.828125 127.170312 L 1176.757812 126.584375 L 1179.726562 126.154687 L 1182.734375 125.920312 L 1185.78125 125.803125 L 1188.867188 125.88125 L 1191.953125 126.076562 L 1195.078125 126.467187 L 1198.203125 126.975 L 1201.367188 127.678125 L 1204.53125 128.498437 L 1207.734375 129.514062 L 1210.898438 130.646875 L 1214.101562 131.975 L 1217.304688 133.420312 L 1220.507812 135.021875 L 1223.671875 136.779687 L 1226.875 138.69375 L 1230.039062 140.764062 L 1233.203125 142.951562 L 1236.328125 145.295312 L 1239.453125 147.75625 L 1242.578125 150.373437 L 1245.625 153.107812 Z M 1248.671875 155.998437 " transform="matrix(0.1,0,0,-0.1,0,130.01)"/>
<path style="fill:none;stroke-width:5;stroke-linecap:round;stroke-linejoin:round;stroke:rgb(0%,0%,0%);stroke-opacity:1;stroke-miterlimit:10;" d="M 1320.390625 437.404687 L 1322.8125 436.584375 L 1325.585938 435.451562 L 1328.28125 434.1625 L 1330.898438 432.75625 L 1333.4375 431.19375 L 1335.898438 429.475 L 1338.28125 427.639062 L 1340.585938 425.646875 L 1342.773438 423.576562 L 1344.84375 421.310937 L 1346.875 418.967187 L 1348.789062 416.467187 L 1350.585938 413.85 L 1352.304688 411.076562 L 1353.90625 408.225 L 1355.390625 405.25625 L 1356.796875 402.170312 L 1358.085938 398.967187 L 1359.296875 395.646875 L 1360.351562 392.248437 L 1361.328125 388.732812 L 1362.1875 385.139062 L 1362.929688 381.428125 L 1363.554688 377.639062 L 1364.0625 373.732812 L 1364.453125 369.7875 L 1364.765625 365.725 L 1364.921875 361.623437 L 1364.960938 357.44375 L 1364.921875 353.185937 L 1364.765625 348.889062 L 1364.453125 344.514062 L 1364.0625 340.060937 L 1363.554688 335.607812 L 1362.929688 331.076562 L 1362.1875 326.545312 L 1361.328125 321.935937 L 1360.351562 317.2875 L 1359.296875 312.639062 L 1358.085938 307.990625 L 1356.796875 303.303125 L 1355.390625 298.576562 L 1353.90625 293.85 L 1352.304688 289.1625 L 1350.585938 284.435937 L 1348.789062 279.709375 L 1346.875 275.021875 L 1344.84375 270.334375 L 1342.773438 265.685937 L 1340.585938 261.0375 L 1338.28125 256.428125 L 1335.898438 251.857812 L 1333.4375 247.2875 L 1330.898438 242.795312 L 1328.28125 238.342187 L 1325.585938 233.967187 L 1322.8125 229.63125 L 1319.960938 225.334375 L 1317.03125 221.115625 L 1314.023438 216.975 L 1310.976562 212.873437 L 1307.890625 208.889062 L 1304.6875 204.94375 L 1301.484375 201.115625 L 1298.203125 197.365625 L 1294.84375 193.69375 L 1291.484375 190.139062 L 1288.085938 186.6625 L 1284.609375 183.303125 L 1281.132812 180.060937 L 1277.578125 176.896875 L 1274.023438 173.889062 L 1270.46875 170.959375 L 1266.875 168.146875 L 1263.242188 165.451562 L 1259.609375 162.9125 L 1255.976562 160.451562 L 1252.304688 158.146875 L 1248.671875 155.998437 " transform="matrix(0.1,0,0,-0.1,0,130.01)"/>
<path style=" stroke:none;fill-rule:nonzero;fill:rgb(0%,0%,0%);fill-opacity:1;" d="M 124.867188 87.550781 L 125.269531 87.441406 L 125.671875 87.347656 L 126.066406 87.265625 L 126.460938 87.195312 L 126.847656 87.140625 L 127.230469 87.097656 L 127.605469 87.066406 L 127.976562 87.050781 L 128.339844 87.046875 L 128.699219 87.058594 L 129.050781 87.082031 L 129.394531 87.121094 L 129.726562 87.171875 L 130.054688 87.234375 L 130.375 87.3125 L 130.683594 87.402344 L 130.984375 87.503906 L 131.277344 87.621094 L 131.527344 87.734375 L 132.574219 84.726562 L 132.351562 84.667969 L 132.058594 84.609375 L 131.757812 84.570312 L 131.460938 84.542969 L 131.15625 84.53125 L 130.847656 84.539062 L 130.539062 84.558594 L 130.226562 84.597656 L 129.910156 84.648438 L 129.597656 84.71875 L 129.277344 84.800781 L 128.960938 84.902344 L 128.640625 85.019531 L 128.324219 85.148438 L 128.003906 85.292969 L 127.683594 85.453125 L 127.363281 85.632812 L 127.046875 85.820312 L 126.730469 86.027344 L 126.414062 86.246094 L 126.097656 86.480469 L 125.789062 86.726562 L 125.476562 86.988281 L 125.171875 87.261719 L 124.867188 87.550781 "/>
<path style="fill:none;stroke-width:5;stroke-linecap:round;stroke-linejoin:round;stroke:rgb(0%,0%,0%);stroke-opacity:1;stroke-miterlimit:10;" d="M 1248.671875 424.592187 L 1252.695312 425.685937 L 1256.71875 426.623437 L 1260.664062 427.44375 L 1264.609375 428.146875 L 1268.476562 428.69375 L 1272.304688 429.123437 L 1276.054688 429.435937 L 1279.765625 429.592187 L 1283.398438 429.63125 L 1286.992188 429.514062 L 1290.507812 429.279687 L 1293.945312 428.889062 L 1297.265625 428.38125 L 1300.546875 427.75625 L 1303.75 426.975 L 1306.835938 426.076562 L 1309.84375 425.060937 L 1312.773438 423.889062 L 1315.273438 422.75625 L 1325.742188 452.834375 L 1323.515625 453.420312 L 1320.585938 454.00625 L 1317.578125 454.396875 L 1314.609375 454.670312 L 1311.5625 454.7875 L 1308.476562 454.709375 L 1305.390625 454.514062 L 1302.265625 454.123437 L 1299.101562 453.615625 L 1295.976562 452.9125 L 1292.773438 452.092187 L 1289.609375 451.076562 L 1286.40625 449.904687 L 1283.242188 448.615625 L 1280.039062 447.170312 L 1276.835938 445.56875 L 1273.632812 443.771875 L 1270.46875 441.896875 L 1267.304688 439.826562 L 1264.140625 437.639062 L 1260.976562 435.295312 L 1257.890625 432.834375 L 1254.765625 430.217187 L 1251.71875 427.482812 Z M 1248.671875 424.592187 " transform="matrix(0.1,0,0,-0.1,0,130.01)"/>
</g>
</svg>
